<?xml version="1.0" encoding="UTF-8" standalone="no"?>
<!-- Created with Inkscape (http://www.inkscape.org/) -->

<svg
   xmlns:dc="http://purl.org/dc/elements/1.1/"
   xmlns:cc="http://creativecommons.org/ns#"
   xmlns:rdf="http://www.w3.org/1999/02/22-rdf-syntax-ns#"
   xmlns:svg="http://www.w3.org/2000/svg"
   xmlns="http://www.w3.org/2000/svg"
   xmlns:sodipodi="http://sodipodi.sourceforge.net/DTD/sodipodi-0.dtd"
   xmlns:inkscape="http://www.inkscape.org/namespaces/inkscape"
   width="95"
   height="95"
   viewBox="0 0 94.999997 95.000004"
   id="svg3358"
   version="1.1"
   inkscape:version="0.91 r13725"
   sodipodi:docname="noun_137585_cropped.svg">
  <defs
     id="defs3360" />
  <sodipodi:namedview
     id="base"
     pagecolor="#ffffff"
     bordercolor="#666666"
     borderopacity="1.0"
     inkscape:pageopacity="0.0"
     inkscape:pageshadow="2"
     inkscape:zoom="3.959798"
     inkscape:cx="-41.707557"
     inkscape:cy="48.531612"
     inkscape:document-units="px"
     inkscape:current-layer="layer1"
     showgrid="false"
     fit-margin-top="0"
     fit-margin-left="0"
     fit-margin-right="0"
     fit-margin-bottom="0"
     units="px"
     inkscape:window-width="1920"
     inkscape:window-height="1057"
     inkscape:window-x="-8"
     inkscape:window-y="-8"
     inkscape:window-maximized="1" />
  <metadata
     id="metadata3363">
    <rdf:RDF>
      <cc:Work
         rdf:about="">
        <dc:format>image/svg+xml</dc:format>
        <dc:type
           rdf:resource="http://purl.org/dc/dcmitype/StillImage" />
        <dc:title></dc:title>
      </cc:Work>
    </rdf:RDF>
  </metadata>
  <g
     inkscape:label="Layer 1"
     inkscape:groupmode="layer"
     id="layer1"
     transform="translate(-339.93851,-485.89381)">
    <path
       inkscape:connector-curvature="0"
       style="color:#000000;clip-rule:nonzero;display:inline;overflow:visible;visibility:visible;opacity:1;isolation:auto;mix-blend-mode:normal;color-interpolation:sRGB;color-interpolation-filters:linearRGB;solid-color:#000000;solid-opacity:1;fill:#000000;fill-opacity:1;fill-rule:nonzero;stroke:#000000;stroke-width:0.49642205;stroke-linecap:butt;stroke-linejoin:miter;stroke-miterlimit:4;stroke-dasharray:none;stroke-dashoffset:0;stroke-opacity:1;color-rendering:auto;image-rendering:auto;shape-rendering:auto;text-rendering:auto;enable-background:accumulate"
       d="m 350.21036,496.14211 3.09336,34.10458 c 1.7018,18.75736 3.16222,34.17049 3.2451,34.25123 0.0828,0.0807 6.84381,1.48392 15.02434,3.11775 8.18054,1.63382 15.06706,2.99634 15.30226,3.02794 0.5077,0.0682 31.23376,-5.93727 31.45277,-6.14752 0.0828,-0.0796 1.5433,-15.49204 3.2451,-34.2494 l 3.09336,-34.10458 -37.22815,0 -37.22814,0 z m 6.44449,5.96421 30.78365,0 30.78366,0 -2.59974,28.63709 c -1.42935,15.75041 -2.66517,28.70124 -2.74782,28.78004 -0.0826,0.0788 -5.84047,1.28518 -12.79392,2.67969 -6.95346,1.39451 -12.86493,2.51159 -13.13763,2.48356 -1.03858,-0.10685 -24.79769,-5.02372 -24.94064,-5.16142 -0.0826,-0.0796 -1.31847,-13.03146 -2.74782,-28.78187 l -2.59974,-28.63709 z m 30.85131,6.46278 c -12.98959,0 -23.61463,0.16703 -23.61153,0.37207 0.003,0.20504 0.55858,6.30048 1.23404,13.54507 0.67547,7.24457 1.22913,13.34002 1.23222,13.54506 0.003,0.20503 8.17897,0.37207 18.16708,0.37207 l 18.15976,0 -0.28886,2.36076 c -0.15924,1.29856 -0.43861,4.18251 -0.61977,6.40779 l -0.32908,4.04519 -6.97285,1.382 -6.97468,1.382 -7.09717,-1.3875 -7.09716,-1.3875 0,-1.61661 c 0,-0.88961 -0.13855,-2.31658 -0.30897,-3.1709 -0.30543,-1.531 -0.35359,-1.55246 -3.26339,-1.55246 l -2.95075,0 0.26508,1.36551 c 0.14591,0.75179 0.40877,3.28089 0.58504,5.61964 l 0.31995,4.25231 8.74988,1.78157 c 4.81232,0.9803 9.30771,1.81626 9.98942,1.85671 0.68171,0.0404 5.53552,-0.7657 10.78469,-1.79257 8.64893,-1.69194 9.54326,-1.96208 9.547,-2.87763 0.002,-0.55566 0.44644,-5.70726 0.98724,-11.44824 0.54081,-5.74098 0.985,-10.60718 0.98724,-10.81221 0.002,-0.20504 -8.34752,-0.37209 -18.55648,-0.37209 l -18.56197,0 -0.27241,-2.11332 c -0.27612,-2.14277 -1.27611,-12.62854 -1.27611,-13.38194 0,-0.2259 9.03568,-0.41056 20.07941,-0.41056 16.60235,0 20.0794,-0.11722 20.0794,-0.67633 0,-0.37192 0.14286,-1.71375 0.31628,-2.98212 l 0.31446,-2.30577 -23.61701,0 z"
       id="path3344" />
  </g>
</svg>
