<?xml version="1.0" encoding="UTF-8" standalone="no"?>
<!-- Created with Inkscape (http://www.inkscape.org/) -->

<svg
   xmlns:dc="http://purl.org/dc/elements/1.1/"
   xmlns:cc="http://creativecommons.org/ns#"
   xmlns:rdf="http://www.w3.org/1999/02/22-rdf-syntax-ns#"
   xmlns:svg="http://www.w3.org/2000/svg"
   xmlns="http://www.w3.org/2000/svg"
   xmlns:sodipodi="http://sodipodi.sourceforge.net/DTD/sodipodi-0.dtd"
   xmlns:inkscape="http://www.inkscape.org/namespaces/inkscape"
   width="95"
   height="95"
   viewBox="0 0 94.999997 95.000004"
   id="svg3358"
   version="1.1"
   inkscape:version="0.91 r13725"
   sodipodi:docname="noun_151268_cropped.svg">
  <defs
     id="defs3360">
    <pattern
       y="0"
       x="0"
       height="6"
       width="6"
       patternUnits="userSpaceOnUse"
       id="EMFhbasepattern" />
    <pattern
       y="0"
       x="0"
       height="6"
       width="6"
       patternUnits="userSpaceOnUse"
       id="EMFhbasepattern-4" />
  </defs>
  <sodipodi:namedview
     id="base"
     pagecolor="#ffffff"
     bordercolor="#666666"
     borderopacity="1.0"
     inkscape:pageopacity="0.0"
     inkscape:pageshadow="2"
     inkscape:zoom="2.3210526"
     inkscape:cx="-32.097506"
     inkscape:cy="125.58957"
     inkscape:document-units="px"
     inkscape:current-layer="layer1"
     showgrid="false"
     fit-margin-top="0"
     fit-margin-left="0"
     fit-margin-right="0"
     fit-margin-bottom="0"
     units="px"
     inkscape:window-width="1920"
     inkscape:window-height="1057"
     inkscape:window-x="-8"
     inkscape:window-y="-8"
     inkscape:window-maximized="1" />
  <metadata
     id="metadata3363">
    <rdf:RDF>
      <cc:Work
         rdf:about="">
        <dc:format>image/svg+xml</dc:format>
        <dc:type
           rdf:resource="http://purl.org/dc/dcmitype/StillImage" />
        <dc:title></dc:title>
      </cc:Work>
    </rdf:RDF>
  </metadata>
  <g
     inkscape:label="Layer 1"
     inkscape:groupmode="layer"
     id="layer1"
     transform="translate(-339.93851,-485.89381)">
    <path
       inkscape:connector-curvature="0"
       style="color:#000000;clip-rule:nonzero;display:inline;overflow:visible;visibility:visible;opacity:1;isolation:auto;mix-blend-mode:normal;color-interpolation:sRGB;color-interpolation-filters:linearRGB;solid-color:#000000;solid-opacity:1;fill:#000000;fill-opacity:1;fill-rule:nonzero;stroke:#000000;stroke-width:0.44279262;stroke-linecap:butt;stroke-linejoin:miter;stroke-miterlimit:4;stroke-dasharray:none;stroke-dashoffset:0;stroke-opacity:1;color-rendering:auto;image-rendering:auto;shape-rendering:auto;text-rendering:auto;enable-background:accumulate"
       d="m 374.45757,498.63964 c -1.28021,-0.008 -2.42836,0.29793 -3.21825,0.91925 -2.40129,1.88887 -3.10949,4.08849 -3.12844,9.70046 -0.009,2.80067 0.13715,6.12705 0.32656,7.39331 l 0.34453,2.30225 -1.67362,0.27267 c -2.94723,0.47788 -9.13315,2.47619 -11.32019,3.65747 -1.16615,0.62987 -2.90984,2.00176 -3.87463,3.04844 -1.56299,1.69563 -1.75362,2.14785 -1.75362,4.14894 0,2.82266 0.74477,4.26684 3.41744,6.63079 2.53187,2.2394 9.87176,6.01826 10.91362,5.61845 1.48422,-0.56954 0.60766,-1.47057 -3.43378,-3.52684 -6.77056,-3.44485 -9.82606,-6.83401 -8.73873,-9.69392 1.01227,-2.66247 5.76901,-5.46665 11.97005,-7.05532 4.28759,-1.09847 5.35394,-1.09164 5.35394,0.0375 0,0.48344 0.70016,2.97211 1.55605,5.53029 l 1.55606,4.65184 -2.22713,4.43795 c -5.94781,11.8524 -7.95263,20.75767 -5.76052,25.58758 2.13469,4.70338 8.58326,4.07142 15.0593,-1.47442 2.60238,-2.22858 3.13049,-3.14921 2.04426,-3.56603 -0.411,-0.15772 -1.72047,0.5423 -3.32437,1.77648 -6.06646,4.66803 -10.20402,5.52299 -11.79861,2.4394 -1.82868,-3.5363 0.43586,-13.27117 5.35885,-23.04694 0.8685,-1.7246 1.64183,-3.0657 1.71934,-2.97986 0.0775,0.0858 1.71309,3.24459 3.63461,7.0194 1.9215,3.77481 4.86742,8.95573 6.54752,11.51286 3.50453,5.33394 9.64823,11.74629 12.64602,13.20117 1.20946,0.58697 2.83594,0.96641 4.13914,0.96661 1.82938,3.1e-4 2.33671,-0.2025 3.42725,-1.36991 1.81443,-1.94235 2.61737,-5.09192 2.61737,-10.26377 0,-7.51304 -2.36003,-16.72142 -6.96225,-27.16976 -1.51932,-3.44928 -2.22491,-4.58979 -2.8427,-4.58979 -1.22013,0 -1.03369,1.13144 0.93722,5.6756 4.2442,9.78549 6.65365,19.36105 6.65365,26.4448 0,6.81733 -1.1447,9.27806 -4.27303,9.18939 -5.09219,-0.14435 -14.52713,-11.46607 -21.6705,-26.00394 -1.80288,-3.66916 -3.27765,-6.99347 -3.27865,-7.38841 -0.003,-0.83119 3.42033,-6.165 6.18667,-9.64004 l 1.90058,-2.38715 4.03627,0.27105 c 12.26346,0.82525 25.24509,4.80558 31.12277,9.54206 2.57618,2.076 4.37641,5.21319 3.95463,6.89367 -0.6865,2.73523 -4.56654,5.36643 -10.16906,6.89531 -2.15435,0.58791 -2.74689,0.93926 -2.85904,1.69484 -0.18799,1.26665 0.73207,1.24108 5.09923,-0.13878 7.3593,-2.32525 10.89172,-6.1346 9.87353,-10.64911 -1.69398,-7.5109 -15.54063,-14.08082 -34.09282,-16.17613 -2.55712,-0.28881 -4.72632,-0.59547 -4.82002,-0.68088 -0.0937,-0.0854 1.3006,-1.78972 3.09905,-3.78809 8.1015,-9.00209 15.41737,-12.89605 18.78698,-9.99762 1.76875,1.52141 1.89239,4.08616 0.46208,9.6384 -1.16757,4.53234 -1.09611,5.70835 0.31676,5.16618 0.94976,-0.36446 2.66428,-7.1559 2.70719,-10.72259 0.0451,-3.74831 -0.85774,-5.54826 -3.34887,-6.67161 -4.86326,-2.19302 -12.61324,2.13926 -21.06637,11.77737 l -3.76033,4.2861 -5.76214,0.30533 c -3.16975,0.16733 -5.84431,0.22317 -5.94339,0.1241 -0.41467,-0.41468 -1.0351,-5.63326 -1.0352,-8.71425 -1.7e-4,-6.17384 1.39886,-8.85629 4.61756,-8.85629 2.33144,0 5.50939,2.09237 8.7224,5.74255 2.39286,2.71843 3.92525,3.41792 3.92525,1.79281 0,-1.23946 -6.43986,-7.59966 -8.88569,-8.77629 -1.3189,-0.6345 -2.73158,-0.95699 -4.01178,-0.96498 z m 4.3808,21.68845 c 1.86073,0 1.94525,0.051 1.37482,0.83435 -0.33413,0.45883 -1.83492,2.55925 -3.33418,4.66655 l -2.72514,3.83054 -0.9013,-2.78392 c -0.49537,-1.53109 -1.08798,-3.50416 -1.31768,-4.3857 l -0.41799,-1.6034 2.66962,-0.27921 c 1.46856,-0.1535 3.56196,-0.27921 4.65185,-0.27921 z m 8.27828,8.16562 c -2.51077,0.12545 -4.62742,2.23358 -4.63061,5.03719 -0.003,1.93505 0.63424,3.0416 2.35123,4.08852 1.6939,1.03284 3.01126,1.08968 4.72695,0.20247 1.81987,-0.9411 2.66146,-2.35426 2.66146,-4.46897 0,-2.25232 -1.19493,-3.9088 -3.32764,-4.61265 -0.60006,-0.19804 -1.20198,-0.27551 -1.78139,-0.24656 z"
       id="path3348" />
  </g>
</svg>
