<?xml version="1.0" encoding="UTF-8" standalone="no"?>
<!-- Created with Inkscape (http://www.inkscape.org/) -->

<svg
   xmlns:dc="http://purl.org/dc/elements/1.1/"
   xmlns:cc="http://creativecommons.org/ns#"
   xmlns:rdf="http://www.w3.org/1999/02/22-rdf-syntax-ns#"
   xmlns:svg="http://www.w3.org/2000/svg"
   xmlns="http://www.w3.org/2000/svg"
   xmlns:sodipodi="http://sodipodi.sourceforge.net/DTD/sodipodi-0.dtd"
   xmlns:inkscape="http://www.inkscape.org/namespaces/inkscape"
   width="95"
   height="95"
   viewBox="0 0 94.999997 95.000004"
   id="svg3358"
   version="1.1"
   inkscape:version="0.91 r13725"
   sodipodi:docname="noun_1375837_cropped.svg">
  <defs
     id="defs3360" />
  <sodipodi:namedview
     id="base"
     pagecolor="#ffffff"
     bordercolor="#666666"
     borderopacity="1.0"
     inkscape:pageopacity="0.0"
     inkscape:pageshadow="2"
     inkscape:zoom="3.959798"
     inkscape:cx="-41.707557"
     inkscape:cy="48.531612"
     inkscape:document-units="px"
     inkscape:current-layer="layer1"
     showgrid="false"
     fit-margin-top="0"
     fit-margin-left="0"
     fit-margin-right="0"
     fit-margin-bottom="0"
     units="px"
     inkscape:window-width="1920"
     inkscape:window-height="1057"
     inkscape:window-x="-8"
     inkscape:window-y="-8"
     inkscape:window-maximized="1" />
  <metadata
     id="metadata3363">
    <rdf:RDF>
      <cc:Work
         rdf:about="">
        <dc:format>image/svg+xml</dc:format>
        <dc:type
           rdf:resource="http://purl.org/dc/dcmitype/StillImage" />
        <dc:title></dc:title>
      </cc:Work>
    </rdf:RDF>
  </metadata>
  <g
     inkscape:label="Layer 1"
     inkscape:groupmode="layer"
     id="layer1"
     transform="translate(-339.93851,-485.89381)">
    <path
       inkscape:connector-curvature="0"
       style="color:#000000;clip-rule:nonzero;display:inline;overflow:visible;visibility:visible;opacity:1;isolation:auto;mix-blend-mode:normal;color-interpolation:sRGB;color-interpolation-filters:linearRGB;solid-color:#000000;solid-opacity:1;fill:#000000;fill-opacity:1;fill-rule:nonzero;stroke:#000000;stroke-width:0.529661;stroke-linecap:butt;stroke-linejoin:miter;stroke-miterlimit:4;stroke-dasharray:none;stroke-dashoffset:0;stroke-opacity:1;color-rendering:auto;image-rendering:auto;shape-rendering:auto;text-rendering:auto;enable-background:accumulate"
       d="m 347.66702,493.69846 3.30469,36.3418 c 1.81808,19.98782 3.37825,36.41202 3.4668,36.49805 0.0885,0.086 7.31137,1.58126 16.05078,3.32227 8.73941,1.741 16.0964,3.19289 16.34766,3.22656 0.54239,0.0727 33.36758,-6.32674 33.60156,-6.55078 0.0885,-0.0848 1.64872,-16.50828 3.4668,-36.4961 l 3.30469,-36.3418 -39.77149,0 -39.77149,0 z m 6.88477,6.35547 32.88672,0 32.88672,0 -2.77734,30.51563 c -1.52701,16.78362 -2.84726,30.584 -2.93555,30.66797 -0.0883,0.084 -6.23947,1.36949 -13.66797,2.85547 -7.4285,1.48598 -13.74384,2.67635 -14.03516,2.64648 -1.10954,-0.11386 -26.49182,-5.35327 -26.64453,-5.5 -0.0883,-0.0848 -1.40855,-13.8863 -2.93555,-30.66992 l -2.77734,-30.51563 z m 32.88672,6.88672 c -20.86319,0 -25.15821,0.12317 -25.15821,0.7207 0,0.39631 0.15123,1.82228 0.33594,3.16992 l 0.33594,2.45118 17.27539,0.13867 17.27539,0.14062 -16.59961,8.36719 c -12.8596,6.48238 -16.5287,8.55011 -16.28711,9.17969 0.17151,0.44695 0.3125,1.86526 0.3125,3.15234 l 0,2.33985 19.40039,0 19.4004,0 -0.3086,2.51562 c -0.17012,1.38374 -0.46857,4.45687 -0.66211,6.82813 l -0.35156,4.31054 -7.44922,1.47266 -7.45117,1.47266 -7.58203,-1.47852 -7.58204,-1.47851 0,-1.72266 c 0,-0.94797 -0.148,-2.46855 -0.33007,-3.37891 -0.32629,-1.63143 -0.37776,-1.65429 -3.48633,-1.65429 l -3.15235,0 0.28321,1.45507 c 0.15587,0.80112 0.43669,3.49612 0.625,5.98829 l 0.34179,4.53125 9.34766,1.89843 c 5.14109,1.04461 9.94359,1.93541 10.67188,1.97852 0.72828,0.0431 5.9137,-0.81593 11.52148,-1.91016 9.2398,-1.80293 10.19522,-2.0908 10.19922,-3.0664 0.002,-0.59211 0.47694,-6.08164 1.05469,-12.19922 0.57775,-6.11759 1.05229,-11.29953 1.05469,-11.51368 0.002,-0.21415 -7.08538,-0.45213 -15.75196,-0.52929 l -15.75781,-0.14063 16.47461,-8.30469 16.47461,-8.30468 0.3418,-2.49414 c 0.18803,-1.37186 0.34179,-2.81854 0.34179,-3.21485 0,-0.59753 -4.29502,-0.7207 -25.1582,-0.7207 z"
       id="path3344-0" />
  </g>
</svg>
