<?xml version="1.0" encoding="UTF-8" standalone="no"?>
<!-- Created with Inkscape (http://www.inkscape.org/) -->

<svg
   xmlns:dc="http://purl.org/dc/elements/1.1/"
   xmlns:cc="http://creativecommons.org/ns#"
   xmlns:rdf="http://www.w3.org/1999/02/22-rdf-syntax-ns#"
   xmlns:svg="http://www.w3.org/2000/svg"
   xmlns="http://www.w3.org/2000/svg"
   xmlns:sodipodi="http://sodipodi.sourceforge.net/DTD/sodipodi-0.dtd"
   xmlns:inkscape="http://www.inkscape.org/namespaces/inkscape"
   width="95"
   height="95"
   viewBox="0 0 94.999997 95.000004"
   id="svg3358"
   version="1.1"
   inkscape:version="0.91 r13725"
   sodipodi:docname="noun_622610_cropped.svg">
  <defs
     id="defs3360">
    <pattern
       y="0"
       x="0"
       height="6"
       width="6"
       patternUnits="userSpaceOnUse"
       id="EMFhbasepattern" />
    <pattern
       y="0"
       x="0"
       height="6"
       width="6"
       patternUnits="userSpaceOnUse"
       id="EMFhbasepattern-4" />
  </defs>
  <sodipodi:namedview
     id="base"
     pagecolor="#ffffff"
     bordercolor="#666666"
     borderopacity="1.0"
     inkscape:pageopacity="0.0"
     inkscape:pageshadow="2"
     inkscape:zoom="2.3210526"
     inkscape:cx="-32.097506"
     inkscape:cy="125.58957"
     inkscape:document-units="px"
     inkscape:current-layer="layer1"
     showgrid="false"
     fit-margin-top="0"
     fit-margin-left="0"
     fit-margin-right="0"
     fit-margin-bottom="0"
     units="px"
     inkscape:window-width="1920"
     inkscape:window-height="1057"
     inkscape:window-x="-8"
     inkscape:window-y="-8"
     inkscape:window-maximized="1" />
  <metadata
     id="metadata3363">
    <rdf:RDF>
      <cc:Work
         rdf:about="">
        <dc:format>image/svg+xml</dc:format>
        <dc:type
           rdf:resource="http://purl.org/dc/dcmitype/StillImage" />
        <dc:title></dc:title>
      </cc:Work>
    </rdf:RDF>
  </metadata>
  <g
     inkscape:label="Layer 1"
     inkscape:groupmode="layer"
     id="layer1"
     transform="translate(-339.93851,-485.89381)">
    <path
       inkscape:connector-curvature="0"
       style="color:#000000;clip-rule:nonzero;display:inline;overflow:visible;visibility:visible;opacity:1;isolation:auto;mix-blend-mode:normal;color-interpolation:sRGB;color-interpolation-filters:linearRGB;solid-color:#000000;solid-opacity:1;fill:#000000;fill-opacity:1;fill-rule:nonzero;stroke:#000000;stroke-width:0.45622849;stroke-linecap:butt;stroke-linejoin:miter;stroke-miterlimit:4;stroke-dasharray:none;stroke-dashoffset:0;stroke-opacity:1;color-rendering:auto;image-rendering:auto;shape-rendering:auto;text-rendering:auto;enable-background:accumulate"
       d="m 405.70118,496.04713 c -4.58099,0.002 -10.65008,0.0243 -18.7391,0.055 -31.90996,0.12119 -32.41354,0.13715 -33.65435,1.06371 -0.69282,0.51736 -1.68342,1.50779 -2.20078,2.20078 -0.9296,1.24517 -0.94033,1.64423 -0.94033,33.99614 l 0,32.73653 1.22293,1.60307 c 0.67239,0.8815 1.90363,1.9409 2.7368,2.35416 1.36997,0.67948 4.5991,0.7409 33.76022,0.64272 31.76989,-0.10695 32.26319,-0.12275 33.50431,-1.04953 0.69281,-0.51735 1.68342,-1.50713 2.20077,-2.19994 0.92656,-1.24081 0.94169,-1.7444 1.06287,-33.65436 0.12288,-32.35609 0.12208,-32.39729 -0.85196,-34.13035 -0.53637,-0.95434 -1.75579,-2.17376 -2.71012,-2.71012 -1.29981,-0.73053 -1.64827,-0.91372 -15.39126,-0.90782 z m -50.23603,4.05642 31.83955,0 c 31.78935,0 31.84045,0.002 32.70819,0.96034 0.83693,0.9248 0.86947,2.12193 0.86947,32.3439 0,30.22196 -0.0325,31.41993 -0.86947,32.34472 -0.86764,0.95865 -0.92271,0.96034 -32.50645,0.96034 -31.02887,0 -31.65489,-0.0179 -32.5498,-0.91282 -0.89477,-0.89477 -0.91199,-1.5206 -0.91199,-32.29054 0,-27.66138 0.0842,-31.49838 0.71025,-32.39225 l 0.71025,-1.01369 z m 25.11552,17.33695 -1.24377,3.76382 c -0.68403,2.07014 -2.84861,8.43392 -4.81087,14.14248 l -3.56792,10.37949 1.79146,0 1.7923,0 1.44634,-4.56244 1.44635,-4.56244 5.13181,0 5.13264,0 1.59223,4.44823 c 1.59091,4.44507 1.59337,4.44846 3.24697,4.58995 0.91012,0.0779 1.65758,-0.0251 1.66142,-0.22841 0.004,-0.20334 -2.10088,-6.57827 -4.67664,-14.16665 l -4.68333,-13.79653 -2.12908,-0.004 -2.12991,-0.003 z m 19.97037,0.0525 c -0.16122,-0.008 -0.33009,4.2e-4 -0.50685,0.0258 -1.34001,0.19164 -2.16826,2.28375 -1.31213,3.31533 1.20653,1.45378 3.67296,0.711 3.67296,-1.10622 0,-1.33473 -0.72544,-2.17999 -1.85398,-2.23495 z m -17.54702,3.4312 c 0.15775,0.004 0.24013,0.3328 0.24425,0.99118 0.003,0.42432 0.82377,3.11995 1.82481,5.99045 1.00105,2.87049 1.81981,5.48824 1.81981,5.81705 0,0.45101 -1.06432,0.59771 -4.33403,0.59771 -2.38379,0 -4.33402,-0.13224 -4.33402,-0.29344 0,-0.16119 0.95556,-3.23288 2.12325,-6.82657 1.35563,-4.17212 2.2528,-6.28629 2.65593,-6.27638 z m 15.75055,4.72833 0,10.03687 0,10.03687 1.59723,0 1.59639,0 0,-10.03687 0,-10.03687 -1.59639,0 -1.59723,0 z"
       id="path3386" />
  </g>
</svg>
