<?xml version="1.0" encoding="UTF-8" standalone="no"?>
<!-- Created with Inkscape (http://www.inkscape.org/) -->

<svg
   xmlns:dc="http://purl.org/dc/elements/1.1/"
   xmlns:cc="http://creativecommons.org/ns#"
   xmlns:rdf="http://www.w3.org/1999/02/22-rdf-syntax-ns#"
   xmlns:svg="http://www.w3.org/2000/svg"
   xmlns="http://www.w3.org/2000/svg"
   xmlns:sodipodi="http://sodipodi.sourceforge.net/DTD/sodipodi-0.dtd"
   xmlns:inkscape="http://www.inkscape.org/namespaces/inkscape"
   width="95"
   height="95"
   viewBox="0 0 94.999997 95.000004"
   id="svg3358"
   version="1.1"
   inkscape:version="0.91 r13725"
   sodipodi:docname="noun_414780_cropped.svg">
  <defs
     id="defs3360" />
  <sodipodi:namedview
     id="base"
     pagecolor="#ffffff"
     bordercolor="#666666"
     borderopacity="1.0"
     inkscape:pageopacity="0.0"
     inkscape:pageshadow="2"
     inkscape:zoom="3.959798"
     inkscape:cx="-41.707557"
     inkscape:cy="48.531612"
     inkscape:document-units="px"
     inkscape:current-layer="layer1"
     showgrid="false"
     fit-margin-top="0"
     fit-margin-left="0"
     fit-margin-right="0"
     fit-margin-bottom="0"
     units="px"
     inkscape:window-width="1920"
     inkscape:window-height="1057"
     inkscape:window-x="-8"
     inkscape:window-y="-8"
     inkscape:window-maximized="1" />
  <metadata
     id="metadata3363">
    <rdf:RDF>
      <cc:Work
         rdf:about="">
        <dc:format>image/svg+xml</dc:format>
        <dc:type
           rdf:resource="http://purl.org/dc/dcmitype/StillImage" />
        <dc:title></dc:title>
      </cc:Work>
    </rdf:RDF>
  </metadata>
  <g
     inkscape:label="Layer 1"
     inkscape:groupmode="layer"
     id="layer1"
     transform="translate(-339.93851,-485.89381)">
    <path
       inkscape:connector-curvature="0"
       style="color:#000000;clip-rule:nonzero;display:inline;overflow:visible;visibility:visible;opacity:1;isolation:auto;mix-blend-mode:normal;color-interpolation:sRGB;color-interpolation-filters:linearRGB;solid-color:#000000;solid-opacity:1;fill:#000000;fill-opacity:1;fill-rule:nonzero;stroke:#000000;stroke-width:0.4009454;stroke-linecap:butt;stroke-linejoin:miter;stroke-miterlimit:4;stroke-dasharray:none;stroke-dashoffset:0;stroke-opacity:1;color-rendering:auto;image-rendering:auto;shape-rendering:auto;text-rendering:auto;enable-background:accumulate"
       d="m 395.03121,496.09399 c -0.0775,0.0112 -0.2235,0.18142 -0.45122,0.46635 -1.83309,2.29362 -2.35029,4.28661 -2.35029,9.05681 0,4.3391 0.0768,4.79455 1.23195,7.24709 2.44078,5.18208 7.67649,9.40015 12.94442,10.42964 4.36207,0.85246 8.75549,0.23628 11.87478,-1.66408 1.95221,-1.18937 6.86498,-5.39189 5.89518,-5.04304 -0.21964,0.079 -1.59958,0.7183 -3.06771,1.42194 -6.22286,2.98252 -11.32989,2.7532 -17.23919,-0.77723 -3.69384,-2.20683 -5.55386,-4.24848 -7.52644,-8.26158 -1.49689,-3.04536 -1.66155,-3.67675 -1.68805,-6.48294 -0.0161,-1.71011 0.10663,-3.92395 0.27107,-4.92029 0.17635,-1.0685 0.23463,-1.49131 0.1055,-1.47267 z m -17.11422,5.22629 c -0.28868,-0.29102 -3.39478,5.14283 -4.33536,7.58416 -1.88024,4.88026 -1.31143,13.26971 1.27415,18.78122 3.87049,8.25049 11.94725,15.22121 19.8849,17.16131 3.58024,0.87506 11.7105,0.78491 15.4148,-0.17018 3.95169,-1.01887 8.05818,-3.20023 10.54707,-5.6059 2.00097,-1.93406 4.34091,-5.13722 4.00262,-5.47826 -0.10277,-0.10361 -0.80197,0.2771 -1.55496,0.84596 -5.11653,3.86541 -12.24441,5.79855 -18.45005,5.00538 -7.39894,-0.9457 -13.44574,-4.01357 -19.05872,-9.67204 -4.35395,-4.38925 -6.6733,-8.31023 -7.99226,-13.50914 -0.97999,-3.86279 -1.05622,-9.60753 -0.16718,-12.62554 0.34438,-1.16908 0.53996,-2.21116 0.43499,-2.31697 z m -19.58299,6.94437 c -0.21284,-0.0925 -1.48902,1.56407 -3.40531,4.45231 -2.17563,3.27914 -3.78935,7.34996 -4.46522,11.26253 -0.66602,3.85558 -0.24795,11.67843 0.82617,15.45302 4.52467,15.90011 18.62991,28.38339 35.00916,30.98461 3.68582,0.58534 11.8314,0.18275 15.67289,-0.7756 6.40236,-1.59723 13.54027,-5.9324 17.01359,-10.33148 1.59452,-2.0195 4.18933,-5.9133 4.19091,-6.28822 7e-4,-0.16458 -1.19358,0.52538 -2.65381,1.5332 -3.53255,2.43807 -5.80562,3.56634 -10.22731,5.07574 -3.17511,1.08386 -4.41156,1.28608 -8.88011,1.44483 -3.6582,0.12996 -6.2555,-0.004 -8.79246,-0.44834 -17.13356,-3.00561 -31.05205,-14.94324 -35.43281,-30.39062 -0.70804,-2.49675 -0.87652,-4.15289 -0.88622,-8.71811 -0.0116,-5.42907 0.36719,-7.86579 2.00293,-12.9037 0.0694,-0.2139 0.0767,-0.32882 0.0276,-0.35017 z"
       id="path3352" />
  </g>
</svg>
