<svg xmlns="http://www.w3.org/2000/svg" xmlns:xlink="http://www.w3.org/1999/xlink" viewBox="0 0 24 30" version="1.1" x="0px" y="0px"><title>35 - Adobe Dreamweaver (Outline)</title><desc>Created with Sketch.</desc><g stroke="none" stroke-width="1" fill="none" fill-rule="evenodd"><g fill="#000000"><path d="M9.2711,13.8268 L9.2711,9.6898 C9.2711,8.9868 9.0671,8.4638 8.6591,8.1208 C8.2511,7.7788 7.7521,7.6078 7.1601,7.6078 L5.3881,7.6078 L5.3881,15.5858 L7.0761,15.5858 C8.1171,15.5858 8.7831,15.3088 9.0741,14.7548 C9.2051,14.5118 9.2711,14.2018 9.2711,13.8268 M7.3011,16.4998 L4.3751,16.4998 L4.3751,6.6368 L7.0201,6.6368 C8.0801,6.6368 8.8891,6.9278 9.4471,7.5098 C10.0051,8.0908 10.2841,8.8648 10.2841,9.8308 L10.2841,13.6858 C10.2841,15.5618 9.2901,16.4998 7.3011,16.4998"/><polygon points="17.9243 16.5 16.7143 16.5 15.4193 11.379 14.1113 16.5 12.9013 16.5 10.7063 9.451 11.7893 9.451 13.4923 15.107 14.9413 9.451 15.9403 9.451 17.3893 15.107 19.0493 9.451 20.1333 9.451"/><path d="M19.6175,22 L4.3825,22 C3.06667589,22 2.0005,20.9336063 2.0005,19.617 L2.0005,4.383 C2.0005,3.06639365 3.06667589,2 4.3825,2 L19.6175,2 C20.9336064,2 22.0005,3.06667581 22.0005,4.383 L22.0005,19.617 C22.0005,20.9333242 20.9336064,22 19.6175,22 Z M19.6175,24 C22.0380845,24 24.0005,22.0379851 24.0005,19.617 L24.0005,4.383 C24.0005,1.96201488 22.0380845,0 19.6175,0 L4.3825,0 C1.96201494,0 0.0005,1.96191558 0.0005,4.383 L0.0005,19.617 C0.0005,22.0380844 1.96201494,24 4.3825,24 L19.6175,24 Z"/></g></g><text x="0" y="39" fill="#000000" font-size="5px" font-weight="bold" font-family="'Helvetica Neue', Helvetica, Arial-Unicode, Arial, Sans-serif">Created by Ben Davis</text><text x="0" y="44" fill="#000000" font-size="5px" font-weight="bold" font-family="'Helvetica Neue', Helvetica, Arial-Unicode, Arial, Sans-serif">from the Noun Project</text></svg>