<svg xmlns="http://www.w3.org/2000/svg" xmlns:xlink="http://www.w3.org/1999/xlink" version="1.1" x="0px" y="0px" viewBox="0 0 100 125" enable-background="new 0 0 100 100" xml:space="preserve"><path d="M48.9,57.2c-1.8,0-3-1.3-3.3-3l-0.6-4c-0.3-2,0.8-3.4,2.8-3.6c5.3-0.7,7.7-2.3,7.7-5.3v-0.1c0-2.7-2.1-4.3-5.6-4.3  c-2.6,0-4.8,0.8-7,2.4c-0.7,0.5-1.7,1-2.7,1c-2.3,0-4.2-1.9-4.2-4.2c0-1.1,0.5-2.4,1.6-3.3c3.2-2.7,7.3-4.4,12.6-4.4  c8.7,0,14.6,4.5,14.6,12.5V41c0,7.7-5.3,10.8-11.9,12.2l-0.2,1.1c-0.2,1.6-1.5,3-3.3,3L48.9,57.2L48.9,57.2z M48.9,61.2  c3,0,5.3,2.2,5.3,5.1v0.1c0,2.9-2.2,5.1-5.3,5.1c-3,0-5.3-2.2-5.3-5.1v-0.1C43.6,63.4,45.8,61.2,48.9,61.2z"/><path d="M24.1,69.1l-16-11.3c-1.8-1.3-2.9-3.3-2.9-6V51c0-2.8,1.1-4.7,2.9-6l16-11.3c0.6-0.4,1.1-0.7,1.8-0.7  c1.5-0.1,2.9,1.9,2.9,4.5c0,2.1-0.8,3.5-2,4.3l-14.4,9.6L26.8,61c1.2,0.8,2,2.5,2,4.5c0,2.6-1.4,4.5-3.1,4.4  C25.1,69.7,24.6,69.4,24.1,69.1z"/><path d="M75.9,33.6l16,11.3c1.8,1.3,2.9,3.3,2.9,6v0.7c0,2.8-1.1,4.7-2.9,6L75.9,69c-0.6,0.4-1.1,0.7-1.8,0.7  c-1.5,0.1-2.9-1.9-2.9-4.5c0-2.1,0.8-3.5,2-4.3l14.4-9.6l-14.4-9.6c-1.2-0.8-2-2.5-2-4.5c0-2.6,1.4-4.5,3.1-4.4  C74.9,33,75.4,33.3,75.9,33.6z"/><text x="0" y="115" fill="#000000" font-size="5px" font-weight="bold" font-family="'Helvetica Neue', Helvetica, Arial-Unicode, Arial, Sans-serif">Created by Jason Early</text><text x="0" y="120" fill="#000000" font-size="5px" font-weight="bold" font-family="'Helvetica Neue', Helvetica, Arial-Unicode, Arial, Sans-serif">from the Noun Project</text></svg>