<?xml version="1.0" encoding="UTF-8" standalone="no"?>
<!-- Created with Inkscape (http://www.inkscape.org/) -->

<svg
   xmlns:dc="http://purl.org/dc/elements/1.1/"
   xmlns:cc="http://creativecommons.org/ns#"
   xmlns:rdf="http://www.w3.org/1999/02/22-rdf-syntax-ns#"
   xmlns:svg="http://www.w3.org/2000/svg"
   xmlns="http://www.w3.org/2000/svg"
   xmlns:sodipodi="http://sodipodi.sourceforge.net/DTD/sodipodi-0.dtd"
   xmlns:inkscape="http://www.inkscape.org/namespaces/inkscape"
   width="95"
   height="95"
   viewBox="0 0 94.999997 95.000004"
   id="svg3358"
   version="1.1"
   inkscape:version="0.91 r13725"
   sodipodi:docname="noun_108773_cropped.svg">
  <defs
     id="defs3360">
    <pattern
       y="0"
       x="0"
       height="6"
       width="6"
       patternUnits="userSpaceOnUse"
       id="EMFhbasepattern" />
    <pattern
       y="0"
       x="0"
       height="6"
       width="6"
       patternUnits="userSpaceOnUse"
       id="EMFhbasepattern-4" />
  </defs>
  <sodipodi:namedview
     id="base"
     pagecolor="#ffffff"
     bordercolor="#666666"
     borderopacity="1.0"
     inkscape:pageopacity="0.0"
     inkscape:pageshadow="2"
     inkscape:zoom="2.3210526"
     inkscape:cx="-32.097506"
     inkscape:cy="125.58957"
     inkscape:document-units="px"
     inkscape:current-layer="layer1"
     showgrid="false"
     fit-margin-top="0"
     fit-margin-left="0"
     fit-margin-right="0"
     fit-margin-bottom="0"
     units="px"
     inkscape:window-width="1920"
     inkscape:window-height="1057"
     inkscape:window-x="-8"
     inkscape:window-y="-8"
     inkscape:window-maximized="1" />
  <metadata
     id="metadata3363">
    <rdf:RDF>
      <cc:Work
         rdf:about="">
        <dc:format>image/svg+xml</dc:format>
        <dc:type
           rdf:resource="http://purl.org/dc/dcmitype/StillImage" />
        <dc:title></dc:title>
      </cc:Work>
    </rdf:RDF>
  </metadata>
  <g
     inkscape:label="Layer 1"
     inkscape:groupmode="layer"
     id="layer1"
     transform="translate(-339.93851,-485.89381)">
    <path
       inkscape:connector-curvature="0"
       id="path3415"
       d="m 388.548,515.63641 c -6.10092,-0.11837 -12.61645,2.78391 -12.498,6.27865 0.0593,1.71772 1.3623,3.08007 2.96159,3.08007 0.59231,0 2.1916,-0.59231 3.55397,-1.30311 2.84319,-1.4808 5.68628,-1.77696 7.70019,-0.71079 1.42159,0.77 1.83623,1.4808 1.83623,3.43549 0,1.95469 -1.65853,3.31706 -4.91625,3.96862 -3.55397,0.77003 -4.14631,1.53996 -3.49476,4.79778 0.23703,1.30314 0.41464,2.42854 0.41464,2.48779 0,0.0593 0.3554,0.41464 0.7108,0.82925 0.71079,0.71079 2.25084,0.88849 3.43543,0.41464 0.41462,-0.11837 0.94771,-0.94774 1.18465,-1.77699 0.3554,-1.06619 0.77004,-1.48083 1.48084,-1.48083 1.8362,-0.0593 5.74558,-2.42855 7.04863,-4.26469 1.71777,-2.3693 2.13238,-6.33792 1.00698,-9.24032 -0.8885,-2.42851 -3.90932,-5.21245 -6.33787,-5.92325 -1.30313,-0.41461 -2.66548,-0.59231 -4.08707,-0.59231 z m 18.89524,3.61317 c -0.94774,0 -2.07314,1.71774 -2.07314,3.13933 0,2.60622 0.77001,3.4355 7.34478,7.75948 3.49476,2.36925 6.2787,4.44239 6.101,4.62009 -0.23702,0.1777 -3.02088,2.01393 -6.21946,4.14632 -3.25782,2.13239 -6.21937,4.32393 -6.63401,4.97548 -0.8885,1.36238 -0.5331,4.50172 0.59234,5.33097 0.41464,0.3554 0.94773,0.59234 1.18465,0.59234 0.71079,0 15.34117,-10.66185 15.99276,-11.66883 1.06619,-1.54005 1.3031,-4.38323 0.59231,-6.10098 -0.3554,-0.88841 -1.54005,-2.25078 -2.60624,-3.13928 -3.7316,-2.96164 -13.62344,-9.65492 -14.27499,-9.65492 z m -40.21894,0.23702 c -0.3554,0.0593 -0.71079,0.1777 -1.12543,0.41464 -2.72465,1.48081 -14.09732,9.83263 -14.86733,10.89882 -1.24389,1.65842 -1.42159,4.6793 -0.47385,6.69323 0.65155,1.30314 2.42851,2.84318 8.35176,6.98942 4.14632,2.90242 7.87791,5.33096 8.23331,5.33096 1.00695,0 2.13238,-1.65853 2.13238,-3.19858 0,-2.54702 -0.71079,-3.37628 -7.28557,-7.70021 l -6.39713,-4.32401 2.0139,-1.36235 c 11.8465,-7.99637 12.14266,-8.29252 11.49111,-11.49108 -0.29616,-1.54004 -1.00696,-2.31008 -2.07315,-2.25084 z m 19.1914,23.69297 c -2.54703,0 -4.08708,1.42159 -4.08708,3.90938 0,1.42159 0.29616,1.95468 1.36235,2.90242 1.95469,1.59929 4.08699,1.54005 5.80477,-0.11837 1.36235,-1.42159 1.59929,-3.02088 0.77001,-4.62017 -0.82926,-1.54005 -1.77699,-2.07315 -3.85005,-2.07315 z"
       style="fill:#000000;fill-opacity:1;fill-rule:nonzero;stroke:#000000;stroke-width:0.41462767px;stroke-linecap:butt;stroke-linejoin:miter;stroke-miterlimit:4;stroke-dasharray:none;stroke-opacity:1" />
  </g>
</svg>
