<svg xmlns:dc="http://purl.org/dc/elements/1.1/" xmlns:cc="http://creativecommons.org/ns#" xmlns:rdf="http://www.w3.org/1999/02/22-rdf-syntax-ns#" xmlns:svg="http://www.w3.org/2000/svg" xmlns="http://www.w3.org/2000/svg" xmlns:sodipodi="http://sodipodi.sourceforge.net/DTD/sodipodi-0.dtd" xmlns:inkscape="http://www.inkscape.org/namespaces/inkscape" viewBox="0 0 626.92097 647.8914625" version="1.1" x="0px" y="0px"><g transform="translate(-94.103343,-229.96478)"><path style="" d="m 393.50334,229.96478 a 52.131948,52.131948 0 0 0 -52.123,52.1221 52.131948,52.131948 0 0 0 52.123,52.1227 52.131948,52.131948 0 0 0 52.122,-52.1227 52.131948,52.131948 0 0 0 -52.122,-52.1221 z m 299.399,25.9399 c -4.787,0.1632 -9.464,2.1846 -12.969,5.9394 l -42.546,45.4554 -24.365,0 0,26.1827 -25.576,27.2731 -27.879,0 0,29.8186 -14.546,15.51546 c -7.075,7.5716 -6.602,19.3497 0.97,26.4248 7.509,7.1371 19.35,6.7231 26.425,-0.8483 l 134.912,-144.24546 c 7.075,-7.5094 6.601,-19.5328 -0.97,-26.5457 -3.787,-3.5375 -8.67,-5.1332 -13.456,-4.97 z m -340.975,83.6378 c -9.588,-1.0619 -19.32,3.1273 -25.092,11.2728 l -102.791,19.5161 c -7.198,1.3653 -13.028,6.3855 -15.636,13.2122 l -26.061,68.97116 c -4.097,10.861 1.382,22.8723 12.242,27.0304 2.421,0.931 4.975,1.3338 7.394,1.3338 8.441,0 16.412,-5.1977 19.516,-13.576 l 21.942,-58.0621 58.424,-11.03016 -48.729,93.57746 c -2.295,4.4064 -3.157,9.1015 -2.909,13.8181 l -39.275,42.6675 -59.151,-40.0008 c -11.543,-7.7577 -27.09,-4.6931 -34.91,6.7885 -7.757,11.5434 -4.694,27.152 6.788,34.9096 l 77.092,52.0011 c 4.283,2.9169 9.22,4.3635 14.061,4.3635 6.827,0 13.524,-2.7841 18.426,-8.1214 l 51.879,-56.2435 59.517,32.8493 -48.364,89.9413 c -4.843,8.9989 -3.59,19.5184 2.18,27.1521 l -176.124,0 c -15.577,0 -28.242997,12.5438 -28.242997,28.1214 0,15.5776 12.665997,28.2431 28.242997,28.2431 l 570.437,0 c 15.577,0 28.241,-12.6655 28.241,-28.2431 0,-15.5776 -12.664,-28.0004 -28.241,-28.0004 l -35.638,0 0,-320.97576 -26.426,28.24256 0,292.7332 -292.49,0 c 0.807,-1.1171 1.682,-2.0314 2.303,-3.2725 l 60.245,-111.8813 c 6.517,-12.1022 2.099,-27.2371 -9.941,-33.94 l -46.668,-25.6978 42.184,-81.2136 57.94,44.1223 c 3.786,2.8549 8.198,4.3635 12.728,4.3635 4.84,0 9.606,-1.6185 13.454,-4.9699 l 57.698,-48.6067 c 8.875,-7.4475 10.055,-20.7014 2.547,-29.5762 -7.448,-8.81276 -20.765,-9.87226 -29.578,-2.42406 l -44.728,37.69746 -50.425,-38.30386 0.97,-1.6969 c 6.889,-13.2191 1.644,-29.5971 -11.637,-36.4855 l -34.061,-17.6975 c -3.026,-1.5826 -6.138,-2.5551 -9.333,-2.9094 z m -213.339,370.43156 538.072,0 c 5.647,0 10.302,4.5349 10.302,10.1824 0,5.7098 -4.655,10.3029 -10.302,10.3029 l -538.072,0 c -5.647,0 -10.303,-4.5931 -10.303,-10.3029 0,-5.6475 4.656,-10.1824 10.303,-10.1824 z" fill="#000000"/></g><text x="0" y="533.31317" fill="#000000" font-size="5px" font-weight="bold" font-family="'Helvetica Neue', Helvetica, Arial-Unicode, Arial, Sans-serif">Created by Hopkins</text><text x="0" y="538.31317" fill="#000000" font-size="5px" font-weight="bold" font-family="'Helvetica Neue', Helvetica, Arial-Unicode, Arial, Sans-serif">from the Noun Project</text></svg>