<svg xmlns="http://www.w3.org/2000/svg" xmlns:xlink="http://www.w3.org/1999/xlink" version="1.1" x="0px" y="0px" viewBox="0 0 100 125" enable-background="new 0 0 100 100" xml:space="preserve"><path d="M19.069,41.615c-1.053,1.893-1.639,7.453-1.639,12.809c0.006-0.011,0.013,0.52-0.167,0.198  c-2.503-4.338-3.759-8.931-3.759-14.158C13.505,23.203,28.966,5,47.973,5c19.003,0,34.465,18.203,34.465,35.464  c0,5.227-0.986,9.426-3.493,13.76c-0.375,0.474-0.416,0.133-0.401-0.378c0-5.347-0.513-10.176-1.563-12.071  c0,0-0.246-0.479-0.212-0.906c0-14.13-12.919-27.694-28.795-27.694S19.195,26.898,19.195,41.028  C19.195,41.326,19.185,41.352,19.069,41.615z M64.878,36.456H63.54c-0.38,0-0.742,0.054-1.088,0.148  c-0.629-0.473-1.391-0.752-2.222-0.752h-1.272c-2.112,0-3.82,1.798-3.82,4.012v30.11c0,2.215,1.708,4.013,3.82,4.013h1.272  c0.831,0,1.593-0.279,2.222-0.752c0.346,0.097,0.708,0.148,1.088,0.148h1.338c2.216,0,4.014-1.741,4.014-3.887v-1.228  c0.096,0.005,0.192,0.012,0.286,0.012h1.646c0.804,0,1.516-0.31,1.965-0.788c1.361-1.007,2.399-6.253,2.399-12.573  s-1.038-11.564-2.399-12.573c-0.449-0.479-1.161-0.787-1.965-0.787h-1.646c-0.094,0-0.19,0.005-0.286,0.011v-1.226  C68.892,38.196,67.094,36.456,64.878,36.456z M73.926,80.097c-3.599-0.303-6.77,0.018-7.965,0.169l-0.169,0.024  c-5.757,1.117-9.511,3.338-14.712,6.412c-1.913,1.132-4.084,2.415-6.647,3.822c-4.36,2.387-6.51,2.196-7.545,1.614  c-1.354-0.76-1.582-2.643-1.62-3.417c-0.084-1.798-0.037-8.986-0.011-12.205c1.126-0.049,2.017-0.782,2.017-1.681v-1.012  c1.976-0.157,3.532-1.888,3.532-4.002v-30.11c0-2.214-1.711-4.012-3.819-4.012h-1.272c-0.83,0-1.597,0.278-2.222,0.752  c-0.35-0.094-0.713-0.149-1.092-0.149h-1.334c-2.219,0-4.018,1.741-4.018,3.888v1.228c-0.091-0.008-0.188-0.017-0.286-0.017h-1.646  c-0.801,0-1.513,0.312-1.961,0.794c-1.363,1.006-2.4,6.25-2.4,12.57c0,6.322,1.037,11.566,2.4,12.573  c0.448,0.479,1.16,0.789,1.961,0.789h1.646c0.098,0,0.195-0.005,0.286-0.014v1.227c0,2.028,1.602,3.687,3.642,3.867v1.626  c0,0.911,0.92,1.653,2.067,1.684c-0.026,3.251-0.071,10.445,0.015,12.319c0.059,1.189,0.454,4.107,2.894,5.475  C36.482,94.774,37.428,95,38.5,95c1.959,0,4.348-0.763,7.132-2.288c2.598-1.425,4.788-2.718,6.721-3.86  c5.15-3.048,8.562-5.064,13.865-6.101c0.02,0,0.036-0.005,0.053-0.005c2.091-0.266,12.769-1.326,17.829,3.737  c0,0,1.379,1.085,2.134,0.179c0.755-0.911-0.365-1.944-0.365-1.944C83.245,82.098,79.229,80.541,73.926,80.097z"/><text x="0" y="115" fill="#000000" font-size="5px" font-weight="bold" font-family="'Helvetica Neue', Helvetica, Arial-Unicode, Arial, Sans-serif">Created by Cris Dobbins</text><text x="0" y="120" fill="#000000" font-size="5px" font-weight="bold" font-family="'Helvetica Neue', Helvetica, Arial-Unicode, Arial, Sans-serif">from the Noun Project</text></svg>