<svg xmlns="http://www.w3.org/2000/svg" xmlns:xlink="http://www.w3.org/1999/xlink" version="1.1" x="0px" y="0px" viewBox="0 0 100 125" enable-background="new 0 0 100 100" xml:space="preserve"><path fill="#000000" d="M75.142,72.998c-0.033-0.004-0.097-0.014-0.142-0.021V44.974c0.987-1.01,1.937-2.073,2.741-3.18  c1.225-1.724,2.225-3.518,2.261-5.619h-0.003c-0.005-3.392-2.096-6.252-5.043-7.5c-0.035-0.816-0.088-1.617-0.17-2.393l-0.117-0.992  c-0.855-6.303-3.347-11.121-7.045-14.436C62.992,6.691,56.735,4.997,50.085,5c-6.65-0.003-12.907,1.691-17.542,5.855  c-3.638,3.262-6.106,7.983-6.997,14.14L25.38,26.33c-0.078,0.738-0.129,1.5-0.164,2.275c-3.037,1.209-5.208,4.113-5.215,7.57  c0.034,2.086,1.031,3.857,2.254,5.571c0.804,1.095,1.754,2.171,2.747,3.192V72.98c-0.048,0.006-0.106,0.014-0.14,0.018  c-6.55,0.084-11.855,5.432-11.861,12v3c0.025,1.311,0.814,2.129,1.475,2.615c1.22,0.877,2.765,1.389,4.839,1.922  c1.6,0.393,3.514,0.744,5.687,1.055V95H33v-0.566c4.745,0.361,10.151,0.562,16.001,0.566C55.47,94.998,61.62,94.746,67,94.311V95  h8.002v-1.553c3.144-0.449,5.745-0.973,7.702-1.598c1.036-0.338,1.893-0.686,2.645-1.176c0.691-0.465,1.6-1.223,1.65-2.676v-3  C86.992,78.432,81.69,73.082,75.142,72.998z M25.001,89.549c-2.941-0.438-5.279-0.967-6.734-1.486  c-0.585-0.209-1.025-0.422-1.269-0.568v-2.496c0.01-4.387,3.616-7.99,8.003-8V89.549z M76.002,36.175h-0.004  c0.012,0.203-0.042,0.488-0.151,0.824H56.155c-0.119-0.338-0.18-0.624-0.155-0.824c0-0.061,0.015-0.116,0.019-0.176h19.965  C75.985,36.059,76.002,36.115,76.002,36.175z M64.417,51.326c-0.305,0.584-0.621,1.154-0.954,1.704  c-3.696,6.151-8.63,10.02-13.461,9.969c-4.838,0.051-9.768-3.817-13.468-9.969c-0.334-0.552-0.652-1.124-0.957-1.71  c0.955-0.696,3.342-2.484,5.777-4.735c1.559-1.447,3.137-3.076,4.388-4.791c1.099-1.546,2.011-3.15,2.21-4.979l0.217-0.245  c0.676-0.369,1.318-0.578,1.836-0.572c0.723,0.002,1.401,0.197,2.023,0.555c0.141,1.922,1.082,3.586,2.229,5.194  C57.448,46.094,62.899,50.207,64.417,51.326z M71.648,31.998C72.726,32,73.687,32.388,74.438,33h-5.677  C69.512,32.38,70.505,32.001,71.648,31.998z M67.766,34.204c0.038-0.071,0.085-0.136,0.128-0.204h7.449  c0.199,0.31,0.348,0.646,0.458,1h-8.813C67.312,34.815,67.585,34.545,67.766,34.204z M64.231,34.204  c0.182,0.342,0.457,0.611,0.781,0.796H56.2c0.109-0.354,0.259-0.69,0.457-1h7.447C64.146,34.068,64.194,34.132,64.231,34.204z   M57.562,33c0.752-0.611,1.712-1,2.79-1.002c1.145,0.004,2.138,0.383,2.887,1.002H57.562z M39.991,26.138  c0.988-0.37,1.994-0.828,3.002-1.403c3.993-2.277,5.999-5.193,7.008-7.552c1.008,2.358,3.014,5.274,7.007,7.552  c1.021,0.583,2.038,1.044,3.04,1.417c0.094,0.678,0.332,1.305,0.668,1.864C60.595,28.011,60.476,28,60.353,28  c-3.251,0.004-6.092,1.837-7.469,4.535c-0.898-0.347-1.87-0.539-2.879-0.537c-1.07,0.004-2.018,0.265-2.848,0.62  c-1.359-2.744-4.226-4.613-7.508-4.618c-0.054,0-0.105,0.006-0.158,0.007C39.78,27.447,39.969,26.818,39.991,26.138z M39.649,31.998  C40.726,32,41.686,32.388,42.437,33h-5.676C37.511,32.38,38.505,32.001,39.649,31.998z M35.767,34.204  c0.037-0.071,0.086-0.136,0.128-0.204h7.447c0.198,0.31,0.348,0.646,0.458,1h-8.812C35.312,34.815,35.586,34.545,35.767,34.204z   M28.351,31.998c1.145,0.004,2.139,0.383,2.889,1.002h-5.676C26.314,32.388,27.274,32,28.351,31.998z M24.658,34h7.447  c0.042,0.068,0.091,0.133,0.128,0.204c0.181,0.342,0.455,0.611,0.779,0.796H24.2C24.311,34.646,24.46,34.309,24.658,34z   M24.001,36.175c0-0.061,0.016-0.116,0.018-0.176H43.98c0.003,0.06,0.019,0.115,0.019,0.176c0.012,0.203-0.043,0.488-0.152,0.824  h-19.69C24.037,36.662,23.978,36.375,24.001,36.175z M24.62,38h18.797c-0.164,0.316-0.365,0.653-0.6,1H25.225  C24.99,38.648,24.792,38.316,24.62,38z M25.947,40h16.131c-0.261,0.332-0.534,0.665-0.83,1H26.789  C26.49,40.667,26.206,40.332,25.947,40z M27.722,42H40.32c-0.326,0.338-0.661,0.671-1.003,1H28.717  C28.378,42.671,28.047,42.337,27.722,42z M29.782,44h8.469c-0.383,0.347-0.76,0.68-1.133,1h-6.209  C30.539,44.679,30.163,44.346,29.782,44z M32.093,46h3.83c-0.737,0.602-1.404,1.119-1.926,1.512c-0.195-0.149-0.412-0.316-0.646-0.5  C32.972,46.714,32.545,46.372,32.093,46z M46.204,90.982C41.403,90.928,36.94,90.73,33,90.424V78.836  c0.591,0.543,1.258,1.129,2.001,1.725c2.667,2.092,6.108,4.381,9.998,4.438C45.057,85,45.114,85,45.171,85  c0.838,0,1.605-0.15,2.309-0.391L46.204,90.982z M47.481,79.791c-0.471,0.697-0.824,1.146-2.482,1.209  c-2.107,0.055-5.169-1.654-7.499-3.564c-1.052-0.838-1.961-1.682-2.652-2.361c1.903-0.531,3.784-1.18,5.387-2.084  c1.2,1.041,3.995,3.176,7.772,3.816c-0.002,0.096-0.006,0.182-0.006,0.285c0.002,0.225,0.01,0.475,0.025,0.738  C47.959,78.514,47.792,79.271,47.481,79.791z M44.675,71.297c-0.564-0.35-1.044-0.697-1.417-0.988c0.786-1.27,1.164-2.754,1.46-4.35  c1.672,0.654,3.434,1.027,5.284,1.041c1.847-0.014,3.607-0.386,5.276-1.039c0.298,1.599,0.678,3.08,1.465,4.35  c-1.321,1.027-4.018,2.736-6.743,2.688C48.044,73.008,46.106,72.184,44.675,71.297z M52.056,76.799  c3.782-0.662,6.57-2.814,7.745-3.838c0.726,0.381,1.508,0.715,2.341,1.033c0.998,0.373,2.066,0.711,3.143,1.014  c-1.074,1.062-2.736,2.57-4.584,3.797c-1.935,1.309-4.064,2.219-5.636,2.195c-1.659-0.062-2.016-0.512-2.483-1.209  c-0.312-0.52-0.479-1.279-0.545-1.965c0.016-0.262,0.024-0.512,0.026-0.734C52.062,76.984,52.059,76.895,52.056,76.799z M67,90.301  c-3.996,0.332-8.481,0.561-13.208,0.652l-1.273-6.365C53.237,84.842,54.028,85,54.892,85c0.057,0,0.114,0,0.173-0.002  c3.89-0.057,7.33-2.346,9.998-4.438c0.716-0.572,1.362-1.139,1.938-1.666V90.301z M65.997,47.512  c-0.195-0.149-0.412-0.317-0.647-0.501c-0.379-0.297-0.806-0.64-1.258-1.012h3.83C67.185,46.601,66.517,47.12,65.997,47.512z   M69.118,45h-6.209c-0.371-0.32-0.748-0.653-1.128-1h8.47C69.868,44.346,69.49,44.679,69.118,45z M71.317,43H60.716  c-0.339-0.328-0.67-0.662-0.995-1h12.599C71.994,42.337,71.659,42.67,71.317,43z M73.248,41h-14.46  c-0.299-0.333-0.583-0.668-0.842-1h16.133C73.818,40.332,73.544,40.665,73.248,41z M57.224,39c-0.234-0.352-0.434-0.684-0.605-1  h18.801c-0.165,0.316-0.365,0.653-0.6,1H57.224z M83.001,87.428c-0.479,0.256-1.613,0.717-3.106,1.055  c-1.342,0.332-3,0.639-4.893,0.92V76.998c4.383,0.01,7.989,3.613,7.999,8V87.428z M49.101,53.141h1.666c0.551,0,1-0.188,1-0.416  s-0.449-0.416-1-0.416h-1.666c-0.551,0-1,0.188-1,0.416S48.55,53.141,49.101,53.141z M51,55.1h-2c-1.105,0-2.999,1.459-2.999,1.901  c0,0.433,1.894,1.899,2.999,1.899h1.899c1.106,0,3.1-1.385,3.1-1.899C53.999,56.621,52.105,55.1,51,55.1z"/><text x="0" y="115" fill="#000000" font-size="5px" font-weight="bold" font-family="'Helvetica Neue', Helvetica, Arial-Unicode, Arial, Sans-serif">Created by Olesya Kozlova</text><text x="0" y="120" fill="#000000" font-size="5px" font-weight="bold" font-family="'Helvetica Neue', Helvetica, Arial-Unicode, Arial, Sans-serif">from the Noun Project</text></svg>