<svg xmlns="http://www.w3.org/2000/svg" xmlns:xlink="http://www.w3.org/1999/xlink" version="1.1" x="0px" y="0px" viewBox="0 0 52 65" enable-background="new 0 0 52 52" xml:space="preserve"><g><g><g><path d="M50,50H2v-4h48V50z M4,48h44H4z"/></g></g><g><g><rect x="2" y="42" width="8" height="2"/></g></g><g><g><rect x="16" y="42" width="8" height="2"/></g></g><g><g><rect x="30" y="42" width="8" height="2"/></g></g><g><g><rect x="30" y="38" width="8" height="2"/></g></g><g><g><rect x="30" y="34" width="8" height="2"/></g></g><g><g><rect x="30" y="30" width="8" height="2"/></g></g><g><g><rect x="30" y="26" width="8" height="2"/></g></g><g><g><rect x="30" y="22" width="8" height="2"/></g></g><g><g><rect x="30" y="18" width="8" height="2"/></g></g><g><g><rect x="30" y="14" width="8" height="2"/></g></g><g><g><rect x="30" y="10" width="8" height="2"/></g></g><g><g><rect x="30" y="6" width="8" height="2"/></g></g><g><g><rect x="30" y="2" width="8" height="2"/></g></g><g><g><rect x="16" y="38" width="8" height="2"/></g></g><g><g><rect x="16" y="34" width="8" height="2"/></g></g><g><g><rect x="16" y="30" width="8" height="2"/></g></g><g><g><rect x="16" y="26" width="8" height="2"/></g></g><g><g><rect x="16" y="22" width="8" height="2"/></g></g><g><g><rect x="16" y="18" width="8" height="2"/></g></g><g><g><rect x="2" y="38" width="8" height="2"/></g></g><g><g><rect x="42" y="42" width="8" height="2"/></g></g><g><g><rect x="42" y="38" width="8" height="2"/></g></g><g><g><rect x="2" y="34" width="8" height="2"/></g></g><g><g><rect x="2" y="30" width="8" height="2"/></g></g><g><g><rect x="2" y="26" width="8" height="2"/></g></g></g><text x="0" y="67" fill="#000000" font-size="5px" font-weight="bold" font-family="'Helvetica Neue', Helvetica, Arial-Unicode, Arial, Sans-serif">Created by Dinosoft Labs</text><text x="0" y="72" fill="#000000" font-size="5px" font-weight="bold" font-family="'Helvetica Neue', Helvetica, Arial-Unicode, Arial, Sans-serif">from the Noun Project</text></svg>