<svg xmlns="http://www.w3.org/2000/svg" xmlns:xlink="http://www.w3.org/1999/xlink" version="1.1" x="0px" y="0px" viewBox="0 0 100 125" enable-background="new 0 0 100 100" xml:space="preserve"><g><path d="M86,25H14v44.5h72V25z M60,66.5H20c-0.829,0-1.5-0.672-1.5-1.5s0.671-1.5,1.5-1.5h40c0.828,0,1.5,0.672,1.5,1.5   S60.828,66.5,60,66.5z M60,61.5H20c-0.829,0-1.5-0.672-1.5-1.5s0.671-1.5,1.5-1.5h40c0.828,0,1.5,0.672,1.5,1.5   S60.828,61.5,60,61.5z M60,56.5H20c-0.829,0-1.5-0.672-1.5-1.5s0.671-1.5,1.5-1.5h40c0.828,0,1.5,0.672,1.5,1.5   S60.828,56.5,60,56.5z M60,51.5H20c-0.829,0-1.5-0.671-1.5-1.5s0.671-1.5,1.5-1.5h40c0.828,0,1.5,0.671,1.5,1.5   S60.828,51.5,60,51.5z M60,46.5H20c-0.829,0-1.5-0.671-1.5-1.5s0.671-1.5,1.5-1.5h40c0.828,0,1.5,0.671,1.5,1.5   S60.828,46.5,60,46.5z M61.5,41.5h-43v-13h43V41.5z M81.5,66.5h-18v-38h18V66.5z"/><path d="M90,17H10c-2.206,0-4,1.794-4,4v52.5c0,2.206,1.794,4,4,4h33.423c-0.761,7.963-7.311,13.224-7.378,13.277   c-1.439,1.127-1.338,2.212-1.15,2.759S35.672,95,37.5,95h25c1.828,0,2.417-0.917,2.605-1.464s0.29-1.632-1.147-2.757   c-0.071-0.055-6.62-5.316-7.381-13.279H90c2.206,0,4-1.794,4-4V21C94,18.794,92.206,17,90,17z M89,72.5H11V22h78V72.5z"/></g><text x="0" y="115" fill="#000000" font-size="5px" font-weight="bold" font-family="'Helvetica Neue', Helvetica, Arial-Unicode, Arial, Sans-serif">Created by Ralf Schmitzer</text><text x="0" y="120" fill="#000000" font-size="5px" font-weight="bold" font-family="'Helvetica Neue', Helvetica, Arial-Unicode, Arial, Sans-serif">from the Noun Project</text></svg>