<svg xmlns="http://www.w3.org/2000/svg" xmlns:xlink="http://www.w3.org/1999/xlink" version="1.1" x="0px" y="0px" viewBox="0 0 100 125" enable-background="new 0 0 100 100" xml:space="preserve"><g><path d="M68.5,41.2l4.4-4.5L68.5,32l-4.6,4.7L68.5,41.2z M72.2,36.7l-3.8,3.4L65,36.7l3.5-3.7L72.2,36.7z"/><path d="M28.9,25l11.4,4.1L36,17.9l-11.3-4.3L28.9,25z M34.4,19.6l0.1,3.9l-3.8-0.2l-0.1-3.7L34.4,19.6z"/><path d="M49.3,60.6L25.9,74.3l20.7,20.1l31.3-18l-3.7-17.4L49.3,60.6z M57.8,77.6l-19.5,6.6l12.6-15.9l19.8-5.8L57.8,77.6z"/><polygon points="43.2,15.8 41.5,57.6 39.5,58 39.5,58.7 42,58.2 44,15.9 41.4,6.7 38,6.8 39.9,8.1  "/><polygon points="16.9,23.6 26.7,7.5 27.5,7.2 26.6,7.3 15.8,23.5 23,35.6  "/><polygon points="39.5,58.8 39.5,58.7 39.5,58.8  "/><polygon points="35.2,4.8 27.5,7.2 38,6.8  "/><polygon points="28.6,45 32.4,51.4 39.5,59.1 39.5,58.8 33.5,51.2  "/><polygon points="23,35.6 26.3,42.1 28.6,45 26.7,41.8  "/><polygon points="30.6,59 29.3,57.7 29,58.5 29.8,59.3 29.3,60.8 22.5,62 20.1,60.1 23.5,52.7 25.5,49.4 24.5,49.1 22.8,52.2    19.4,60.4 22.3,62.5 24.6,63 30.2,61.7  "/><polygon points="42.9,81.6 54,75.3 54.5,75.9 54.1,75.2 58.6,68.1 65,66.4 65,65.4 58.3,67.3 53.3,74.4 42.7,81.4  "/><polygon points="82.6,46.6 78.2,47.5 72.3,49.9 83,56.1 82.9,53.8  "/><polygon points="72.3,48.7 78.2,47.5 88.8,43.1 81.2,38.1 68.4,43.8 52.4,36.6 67.9,29.3 58.5,23.2 55.6,23.2 56.7,22.5 57,22.2    51,18.2 47.2,37.5 63.7,53.5 72.3,49.9 71.9,49.7  "/><polygon points="71,22.9 64.5,17.4 63,17.1 57,22.2 58.5,23.2  "/><polygon points="84.1,36.7 68.4,29.1 67.9,29.3 81.2,38.1  "/></g><text x="0" y="115" fill="#000000" font-size="5px" font-weight="bold" font-family="'Helvetica Neue', Helvetica, Arial-Unicode, Arial, Sans-serif">Created by Maurizio Fusillo</text><text x="0" y="120" fill="#000000" font-size="5px" font-weight="bold" font-family="'Helvetica Neue', Helvetica, Arial-Unicode, Arial, Sans-serif">from the Noun Project</text></svg>