<svg xmlns="http://www.w3.org/2000/svg" xmlns:xlink="http://www.w3.org/1999/xlink" version="1.1" x="0px" y="0px" viewBox="0 0 100 125" enable-background="new 0 0 100 100" xml:space="preserve"><path d="M94.05,27.314H62.553c-0.524,0-0.948,0.385-0.948,0.858v43.654c0,0.474,0.424,0.858,0.948,0.858H94.05  c0.524,0,0.95-0.385,0.95-0.858V28.173C95,27.699,94.574,27.314,94.05,27.314z M89.748,29.385c1.45,0,2.625,1.177,2.625,2.628  c0,1.449-1.175,2.625-2.625,2.625c-1.452,0-2.628-1.177-2.628-2.625C87.12,30.562,88.296,29.385,89.748,29.385z M82.224,29.385  c1.452,0,2.628,1.177,2.628,2.628c0,1.449-1.176,2.625-2.628,2.625c-1.448,0-2.626-1.177-2.626-2.625  C79.598,30.562,80.775,29.385,82.224,29.385z M74.379,29.385c1.45,0,2.625,1.177,2.625,2.628c0,1.449-1.175,2.625-2.625,2.625  s-2.628-1.177-2.628-2.625C71.751,30.562,72.929,29.385,74.379,29.385z M66.855,29.385c1.451,0,2.627,1.177,2.627,2.628  c0,1.449-1.176,2.625-2.627,2.625c-1.45,0-2.627-1.177-2.627-2.625C64.229,30.562,65.405,29.385,66.855,29.385z M69.176,70.32  c0,0.064-0.066,0.118-0.15,0.118h-5.359c-0.082,0-0.149-0.054-0.149-0.118v-3.112c0-0.064,0.067-0.118,0.149-0.118h5.359  c0.084,0,0.15,0.054,0.15,0.118V70.32z M69.176,65.005c0,0.066-0.066,0.119-0.15,0.119h-5.359c-0.082,0-0.149-0.053-0.149-0.119  v-3.112c0-0.064,0.067-0.118,0.149-0.118h5.359c0.084,0,0.15,0.054,0.15,0.118V65.005z M76.63,70.32  c0,0.064-0.068,0.118-0.149,0.118h-5.361c-0.083,0-0.149-0.054-0.149-0.118v-3.112c0-0.064,0.066-0.118,0.149-0.118h5.361  c0.081,0,0.149,0.054,0.149,0.118V70.32z M84.365,70.32c0,0.064-0.066,0.118-0.149,0.118h-5.359c-0.085,0-0.152-0.054-0.152-0.118  v-3.112c0-0.064,0.067-0.118,0.152-0.118h5.359c0.083,0,0.149,0.054,0.149,0.118V70.32z M78.221,59.629  c-6.409,0-11.604-5.195-11.604-11.604c0-6.409,5.195-11.604,11.604-11.604c6.408,0,11.604,5.195,11.604,11.604  C89.824,54.434,84.629,59.629,78.221,59.629z M92.234,55.319v6.117c0,0.095-0.029,0.171-0.065,0.171H90.46  c-0.035,0-0.063-0.076-0.063-0.171v-6.117c0-0.093,0.028-0.171,0.063-0.171h1.709C92.205,55.148,92.234,55.227,92.234,55.319z   M92.234,70.309c0,0.071-0.029,0.13-0.065,0.13H90.46c-0.035,0-0.063-0.059-0.063-0.13v-4.646c0-0.071,0.028-0.13,0.063-0.13h1.709  c0.036,0,0.065,0.059,0.065,0.13V70.309z M93.768,64.743c0,0.041-0.059,0.074-0.13,0.074h-4.646c-0.072,0-0.131-0.033-0.131-0.074  v-1.937c0-0.041,0.059-0.074,0.131-0.074h4.646c0.071,0,0.13,0.033,0.13,0.074V64.743z M82.749,48.025  c0,2.5-2.028,4.529-4.528,4.529s-4.528-2.029-4.528-4.529c0-2.501,2.028-4.528,4.528-4.528S82.749,45.524,82.749,48.025z M5,28.173  v43.654c0,0.474,0.426,0.858,0.95,0.858h31.496c0.525,0,0.95-0.385,0.95-0.858V28.173c0-0.474-0.425-0.858-0.95-0.858H5.95  C5.426,27.314,5,27.699,5,28.173z M12.878,32.013c0,1.449-1.175,2.625-2.625,2.625c-1.45,0-2.626-1.177-2.626-2.625  c0-1.451,1.177-2.628,2.626-2.628C11.703,29.385,12.878,30.562,12.878,32.013z M7.83,55.148h1.71c0.035,0,0.064,0.078,0.064,0.171  v6.117c0,0.095-0.029,0.171-0.064,0.171H7.83c-0.036,0-0.065-0.076-0.065-0.171v-6.117C7.765,55.227,7.794,55.148,7.83,55.148z   M20.401,32.013c0,1.449-1.175,2.625-2.626,2.625c-1.45,0-2.625-1.177-2.625-2.625c0-1.451,1.176-2.628,2.625-2.628  C19.226,29.385,20.401,30.562,20.401,32.013z M28.249,32.013c0,1.449-1.176,2.625-2.626,2.625c-1.45,0-2.627-1.177-2.627-2.625  c0-1.451,1.177-2.628,2.627-2.628C27.073,29.385,28.249,30.562,28.249,32.013z M35.771,32.013c0,1.449-1.176,2.625-2.626,2.625  c-1.451,0-2.625-1.177-2.625-2.625c0-1.451,1.174-2.628,2.625-2.628C34.595,29.385,35.771,30.562,35.771,32.013z M30.823,67.208  c0-0.064,0.067-0.118,0.15-0.118h5.36c0.083,0,0.15,0.054,0.15,0.118v3.112c0,0.064-0.066,0.118-0.15,0.118h-5.36  c-0.083,0-0.15-0.054-0.15-0.118V67.208z M30.823,61.893c0-0.064,0.067-0.118,0.15-0.118h5.36c0.083,0,0.15,0.054,0.15,0.118v3.112  c0,0.066-0.066,0.119-0.15,0.119h-5.36c-0.083,0-0.15-0.053-0.15-0.119V61.893z M23.371,67.208c0-0.064,0.066-0.118,0.149-0.118  h5.36c0.082,0,0.149,0.054,0.149,0.118v3.112c0,0.064-0.067,0.118-0.149,0.118h-5.36c-0.083,0-0.149-0.054-0.149-0.118V67.208z   M15.635,67.208c0-0.064,0.067-0.118,0.151-0.118h5.359c0.083,0,0.151,0.054,0.151,0.118v3.112c0,0.064-0.067,0.118-0.151,0.118  h-5.359c-0.084,0-0.151-0.054-0.151-0.118V67.208z M10.177,48.025c0-6.409,5.194-11.604,11.603-11.604s11.604,5.195,11.604,11.604  c0,6.408-5.195,11.604-11.604,11.604S10.177,54.434,10.177,48.025z M7.765,65.662c0-0.071,0.029-0.13,0.065-0.13h1.71  c0.035,0,0.064,0.059,0.064,0.13v4.646c0,0.071-0.029,0.13-0.064,0.13H7.83c-0.036,0-0.065-0.059-0.065-0.13V65.662z M6.231,62.807  c0-0.041,0.059-0.074,0.13-0.074h4.646c0.071,0,0.13,0.033,0.13,0.074v1.937c0,0.041-0.059,0.074-0.13,0.074H6.362  c-0.072,0-0.13-0.033-0.13-0.074V62.807z M21.78,43.498c2.502,0,4.529,2.027,4.529,4.528c0,2.5-2.027,4.529-4.529,4.529  c-2.501,0-4.53-2.029-4.53-4.529C17.25,45.524,19.279,43.498,21.78,43.498z M52.453,36.083c0,1.355-1.099,2.453-2.453,2.453  s-2.452-1.098-2.452-2.453c0-1.355,1.097-2.452,2.452-2.452S52.453,34.728,52.453,36.083z M58.72,27.314H41.28  c-0.29,0-0.524,0.385-0.524,0.858v43.654c0,0.474,0.234,0.858,0.524,0.858h17.44c0.29,0,0.525-0.385,0.525-0.858V28.173  C59.245,27.699,59.01,27.314,58.72,27.314z M54.881,55.131v6.117c0,0.095-0.029,0.171-0.065,0.171h-1.707  c-0.036,0-0.065-0.076-0.065-0.171v-6.117c0-0.094,0.029-0.171,0.065-0.171h1.707C54.852,54.96,54.881,55.037,54.881,55.131z   M46.604,31.554h6.792v9.057h-6.792V31.554z M46.604,42.499h6.792v9.055h-6.792V42.499z M45.118,55.131  c0-0.094,0.029-0.171,0.065-0.171h1.708c0.037,0,0.065,0.077,0.065,0.171v6.117c0,0.095-0.029,0.171-0.065,0.171h-1.708  c-0.037,0-0.065-0.076-0.065-0.171V55.131z M46.958,70.119c0,0.072-0.029,0.13-0.065,0.13h-1.708c-0.037,0-0.065-0.058-0.065-0.13  v-4.646c0-0.072,0.029-0.13,0.065-0.13h1.708c0.037,0,0.065,0.058,0.065,0.13V70.119z M48.491,64.556  c0,0.039-0.058,0.072-0.13,0.072h-4.646c-0.072,0-0.13-0.033-0.13-0.072v-1.938c0-0.041,0.058-0.074,0.13-0.074h4.646  c0.072,0,0.13,0.033,0.13,0.074V64.556z M54.881,70.119c0,0.072-0.029,0.13-0.065,0.13h-1.707c-0.036,0-0.065-0.058-0.065-0.13  v-4.646c0-0.072,0.029-0.13,0.065-0.13h1.707c0.036,0,0.065,0.058,0.065,0.13V70.119z M56.416,64.556  c0,0.039-0.059,0.072-0.132,0.072h-4.644c-0.072,0-0.133-0.033-0.133-0.072v-1.938c0-0.041,0.061-0.074,0.133-0.074h4.644  c0.073,0,0.132,0.033,0.132,0.074V64.556z M52.453,47.025c0,1.355-1.099,2.453-2.453,2.453s-2.452-1.097-2.452-2.453  c0-1.354,1.097-2.451,2.452-2.451S52.453,45.671,52.453,47.025z"/><text x="0" y="115" fill="#000000" font-size="5px" font-weight="bold" font-family="'Helvetica Neue', Helvetica, Arial-Unicode, Arial, Sans-serif">Created by Cris Dobbins</text><text x="0" y="120" fill="#000000" font-size="5px" font-weight="bold" font-family="'Helvetica Neue', Helvetica, Arial-Unicode, Arial, Sans-serif">from the Noun Project</text></svg>