<svg xmlns="http://www.w3.org/2000/svg" xmlns:xlink="http://www.w3.org/1999/xlink" version="1.1" x="0px" y="0px" viewBox="0 0 100 125" enable-background="new 0 0 100 100" xml:space="preserve"><path d="M95.495,10.007H4.506c-1.232,0-2.231,0.999-2.231,2.231v54.788h95.452V12.238C97.727,11.006,96.728,10.007,95.495,10.007z   M93.369,64.185H6.892V13.763h86.477V64.185z M63.46,90.494c-3.365-0.017-13.459,0-13.459,0s-10.095-0.017-13.46,0  c-1.43,0.007-1.842-0.766,0.32-1.976c1.082-0.605,2.651-1.545,2.96-4.607c0.168-1.677,0.482-6.877,0.482-6.877h9.697h9.696  c0,0,0.313,5.2,0.481,6.877c0.31,3.062,1.879,4.002,2.961,4.607C65.302,89.729,64.891,90.501,63.46,90.494z M2.275,67.636h95.452  v6.56c0,1.233-0.999,2.231-2.231,2.231H4.506c-1.232,0-2.231-0.998-2.231-2.231V67.636z M15.965,45.925h8.134V40.33h-8.134V45.925z   M21.921,42.47c0.918,0,1.664,0.746,1.664,1.664c0,0.53-0.255,1.033-0.683,1.345c-0.094,0.069-0.227,0.048-0.295-0.045  c-0.067-0.095-0.047-0.227,0.046-0.295c0.32-0.234,0.51-0.609,0.51-1.005c0-0.685-0.557-1.242-1.242-1.242  c-0.613,0-1.123,0.446-1.224,1.032h1.224c0.116,0,0.211,0.094,0.211,0.21c0,0.117-0.095,0.211-0.211,0.211h-1.223  c0.055,0.315,0.228,0.603,0.49,0.794c0.095,0.068,0.115,0.2,0.046,0.295c-0.041,0.056-0.105,0.087-0.17,0.087  c-0.043,0-0.087-0.015-0.125-0.042c-0.428-0.312-0.684-0.815-0.684-1.345C20.256,43.216,21.003,42.47,21.921,42.47z M18.141,40.735  c0.918,0,1.664,0.748,1.664,1.666c0,0.529-0.255,1.032-0.683,1.345c-0.094,0.068-0.227,0.047-0.295-0.046s-0.047-0.226,0.046-0.294  c0.319-0.233,0.51-0.609,0.51-1.004c0-0.686-0.558-1.243-1.242-1.243c-0.686,0-1.243,0.558-1.243,1.243  c0,0.324,0.129,0.633,0.351,0.863l0.721-0.988c0.068-0.094,0.2-0.115,0.294-0.046c0.095,0.069,0.115,0.202,0.046,0.295L17.455,43.7  l0,0c-0.008,0.012-0.018,0.02-0.027,0.028c-0.002,0.003-0.005,0.007-0.008,0.01c-0.007,0.006-0.017,0.01-0.025,0.017  c-0.006,0.003-0.011,0.007-0.017,0.01c-0.011,0.005-0.022,0.009-0.033,0.012c-0.005,0.001-0.008,0.003-0.012,0.004  c-0.017,0.004-0.032,0.005-0.049,0.005c-0.042,0-0.086-0.013-0.125-0.04c-0.428-0.313-0.683-0.816-0.683-1.345  C16.476,41.483,17.223,40.735,18.141,40.735z M15.965,63.539h8.134V46.347h-8.134V63.539z M19.377,61.147h-2.473v-1.421h2.473  V61.147z M19.377,59.198h-2.473v-2.475h2.473V59.198z M19.122,56.219c-0.094,0.068-0.227,0.047-0.295-0.046  c-0.069-0.095-0.047-0.228,0.046-0.296c0.319-0.232,0.51-0.607,0.51-1.004c0-0.686-0.558-1.243-1.242-1.243  c-0.686,0-1.243,0.558-1.243,1.243c0,0.325,0.129,0.634,0.351,0.863l0.721-0.986c0.068-0.095,0.2-0.116,0.294-0.048  c0.095,0.069,0.115,0.202,0.046,0.297l-0.856,1.174l0,0c-0.008,0.01-0.018,0.02-0.027,0.029c-0.002,0.002-0.005,0.004-0.008,0.009  c-0.007,0.005-0.017,0.01-0.025,0.017c-0.006,0.003-0.011,0.008-0.017,0.01c-0.011,0.005-0.022,0.01-0.033,0.012  c-0.005,0.003-0.008,0.003-0.012,0.005c-0.017,0.005-0.032,0.005-0.049,0.005c-0.042,0-0.086-0.012-0.125-0.04  c-0.428-0.313-0.683-0.816-0.683-1.346c0-0.918,0.747-1.665,1.665-1.665c0.918,0,1.664,0.747,1.664,1.665  C19.805,55.402,19.55,55.905,19.122,56.219z M17.625,52.28h1.029l-0.515,0.631L17.625,52.28z M23.797,48.699v1.029l-1.031-0.515  L23.797,48.699z M22.163,46.698h0.422v16.257h-0.422V46.698z M21.426,46.698h0.422v16.257h-0.422V46.698z M16.914,46.698h2.454  c0.367,0,0.663,0.296,0.663,0.663c0,0.366-0.296,0.664-0.663,0.664h-2.454c-0.365,0-0.663-0.298-0.663-0.664  C16.25,46.995,16.548,46.698,16.914,46.698z M16.25,48.615h3.78v1.254h-3.78V48.615z M84.46,45.925h8.133V40.33H84.46V45.925z   M90.416,42.47c0.918,0,1.664,0.746,1.664,1.664c0,0.53-0.255,1.033-0.683,1.345c-0.094,0.069-0.227,0.048-0.295-0.045  c-0.069-0.095-0.048-0.227,0.046-0.295c0.32-0.234,0.51-0.609,0.51-1.005c0-0.685-0.558-1.242-1.242-1.242  c-0.613,0-1.123,0.446-1.224,1.032h1.224c0.116,0,0.211,0.094,0.211,0.21c0,0.117-0.095,0.211-0.211,0.211h-1.223  c0.056,0.315,0.229,0.603,0.49,0.794c0.095,0.068,0.114,0.2,0.046,0.295c-0.042,0.056-0.105,0.087-0.171,0.087  c-0.043,0-0.087-0.015-0.124-0.042c-0.429-0.312-0.684-0.815-0.684-1.345C88.751,43.216,89.498,42.47,90.416,42.47z M86.635,40.735  c0.92,0,1.665,0.748,1.665,1.666c0,0.529-0.255,1.032-0.683,1.345c-0.094,0.068-0.227,0.047-0.296-0.046  c-0.068-0.094-0.047-0.226,0.047-0.294c0.319-0.233,0.51-0.609,0.51-1.004c0-0.686-0.558-1.243-1.243-1.243  c-0.685,0-1.241,0.558-1.241,1.243c0,0.324,0.129,0.633,0.351,0.863l0.721-0.988c0.068-0.094,0.201-0.115,0.296-0.046  c0.094,0.069,0.114,0.202,0.045,0.295L85.949,43.7l0,0c-0.008,0.012-0.018,0.02-0.027,0.028c-0.002,0.003-0.005,0.007-0.008,0.01  c-0.008,0.006-0.017,0.01-0.025,0.017c-0.006,0.003-0.011,0.007-0.017,0.01c-0.011,0.005-0.022,0.009-0.034,0.012  c-0.004,0.001-0.007,0.003-0.011,0.004c-0.017,0.004-0.032,0.005-0.049,0.005c-0.042,0-0.086-0.013-0.124-0.04  c-0.429-0.313-0.684-0.816-0.684-1.345C84.971,41.483,85.718,40.735,86.635,40.735z M75.903,45.925h8.133V40.33h-8.133V45.925z   M81.861,42.47c0.918,0,1.664,0.746,1.664,1.664c0,0.53-0.256,1.033-0.684,1.345c-0.094,0.069-0.226,0.048-0.294-0.045  c-0.069-0.095-0.049-0.227,0.045-0.295c0.32-0.234,0.51-0.609,0.51-1.005c0-0.685-0.558-1.242-1.241-1.242  c-0.613,0-1.124,0.446-1.225,1.032h1.225c0.116,0,0.211,0.094,0.211,0.21c0,0.117-0.095,0.211-0.211,0.211h-1.224  c0.055,0.315,0.229,0.603,0.491,0.794c0.094,0.068,0.114,0.2,0.045,0.295c-0.041,0.056-0.105,0.087-0.171,0.087  c-0.042,0-0.086-0.015-0.124-0.042c-0.427-0.312-0.684-0.815-0.684-1.345C80.195,43.216,80.943,42.47,81.861,42.47z M78.081,40.735  c0.918,0,1.664,0.748,1.664,1.666c0,0.529-0.255,1.032-0.684,1.345c-0.094,0.068-0.227,0.047-0.295-0.046  c-0.069-0.094-0.048-0.226,0.046-0.294c0.32-0.233,0.51-0.609,0.51-1.004c0-0.686-0.557-1.243-1.241-1.243  c-0.686,0-1.243,0.558-1.243,1.243c0,0.324,0.129,0.633,0.351,0.863l0.722-0.988c0.068-0.094,0.2-0.115,0.294-0.046  c0.095,0.069,0.115,0.202,0.046,0.295L77.395,43.7l0,0c-0.009,0.012-0.019,0.02-0.027,0.028c-0.003,0.003-0.005,0.007-0.008,0.01  c-0.008,0.006-0.018,0.01-0.025,0.017c-0.006,0.003-0.011,0.007-0.017,0.01c-0.011,0.005-0.022,0.009-0.033,0.012  c-0.005,0.001-0.009,0.003-0.013,0.004c-0.017,0.004-0.031,0.005-0.048,0.005c-0.043,0-0.087-0.013-0.125-0.04  c-0.428-0.313-0.683-0.816-0.683-1.345C76.416,41.483,77.163,40.735,78.081,40.735z M75.903,63.539h8.133V46.347h-8.133V63.539z   M79.316,61.147h-2.473v-1.421h2.473V61.147z M79.316,59.198h-2.473v-2.475h2.473V59.198z M79.062,56.219  c-0.094,0.068-0.227,0.047-0.295-0.046c-0.069-0.095-0.048-0.228,0.046-0.296c0.32-0.232,0.51-0.607,0.51-1.004  c0-0.686-0.557-1.243-1.241-1.243c-0.686,0-1.243,0.558-1.243,1.243c0,0.325,0.129,0.634,0.351,0.863l0.722-0.986  c0.068-0.095,0.2-0.116,0.294-0.048c0.095,0.069,0.115,0.202,0.046,0.297l-0.855,1.174l0,0c-0.009,0.01-0.019,0.02-0.027,0.029  c-0.003,0.002-0.005,0.004-0.008,0.009c-0.008,0.005-0.018,0.01-0.025,0.017c-0.006,0.003-0.011,0.008-0.017,0.01  c-0.011,0.005-0.022,0.01-0.033,0.012c-0.005,0.003-0.009,0.003-0.013,0.005c-0.017,0.005-0.031,0.005-0.048,0.005  c-0.043,0-0.087-0.012-0.125-0.04c-0.428-0.313-0.683-0.816-0.683-1.346c0-0.918,0.747-1.665,1.665-1.665s1.664,0.747,1.664,1.665  C79.745,55.402,79.49,55.905,79.062,56.219z M77.566,52.28h1.028l-0.514,0.631L77.566,52.28z M83.736,48.699v1.029l-1.029-0.515  L83.736,48.699z M82.103,46.698h0.423v16.257h-0.423V46.698z M81.365,46.698h0.422v16.257h-0.422V46.698z M76.854,46.698h2.453  c0.366,0,0.663,0.296,0.663,0.663c0,0.366-0.297,0.664-0.663,0.664h-2.453c-0.366,0-0.664-0.298-0.664-0.664  C76.19,46.995,76.488,46.698,76.854,46.698z M76.19,48.615h3.78v1.254h-3.78V48.615z M84.46,63.539h8.133V46.347H84.46V63.539z   M87.872,61.147h-2.473v-1.421h2.473V61.147z M87.872,59.198h-2.473v-2.475h2.473V59.198z M87.617,56.219  c-0.094,0.068-0.227,0.047-0.296-0.046c-0.068-0.095-0.047-0.228,0.047-0.296c0.319-0.232,0.51-0.607,0.51-1.004  c0-0.686-0.558-1.243-1.243-1.243c-0.685,0-1.241,0.558-1.241,1.243c0,0.325,0.129,0.634,0.351,0.863l0.721-0.986  c0.068-0.095,0.201-0.116,0.296-0.048c0.094,0.069,0.114,0.202,0.045,0.297l-0.856,1.174l0,0c-0.008,0.01-0.018,0.02-0.027,0.029  c-0.002,0.002-0.005,0.004-0.008,0.009c-0.008,0.005-0.017,0.01-0.025,0.017c-0.006,0.003-0.011,0.008-0.017,0.01  c-0.011,0.005-0.022,0.01-0.034,0.012c-0.004,0.003-0.007,0.003-0.011,0.005c-0.017,0.005-0.032,0.005-0.049,0.005  c-0.042,0-0.086-0.012-0.124-0.04c-0.429-0.313-0.684-0.816-0.684-1.346c0-0.918,0.747-1.665,1.664-1.665  c0.92,0,1.665,0.747,1.665,1.665C88.3,55.402,88.045,55.905,87.617,56.219z M86.12,52.28h1.029l-0.515,0.631L86.12,52.28z   M92.29,48.699v1.029l-1.028-0.515L92.29,48.699z M90.658,46.698h0.421v16.257h-0.421V46.698z M89.921,46.698h0.422v16.257h-0.422  V46.698z M85.408,46.698h2.454c0.367,0,0.663,0.296,0.663,0.663c0,0.366-0.296,0.664-0.663,0.664h-2.454  c-0.366,0-0.663-0.298-0.663-0.664C84.745,46.995,85.042,46.698,85.408,46.698z M84.745,48.615h3.78v1.254h-3.78V48.615z   M67.344,63.539h8.133V46.347h-8.133V63.539z M70.756,61.147h-2.474v-1.421h2.474V61.147z M70.756,59.198h-2.474v-2.475h2.474  V59.198z M70.5,56.219c-0.094,0.068-0.225,0.047-0.294-0.046c-0.068-0.095-0.049-0.228,0.045-0.296  c0.32-0.232,0.512-0.607,0.512-1.004c0-0.686-0.558-1.243-1.243-1.243s-1.243,0.558-1.243,1.243c0,0.325,0.13,0.634,0.353,0.863  l0.72-0.986c0.069-0.095,0.2-0.116,0.296-0.048c0.094,0.069,0.113,0.202,0.045,0.297l-0.856,1.174l0,0  c-0.009,0.01-0.018,0.02-0.027,0.029c-0.003,0.002-0.005,0.004-0.007,0.009c-0.009,0.005-0.019,0.01-0.026,0.017  c-0.005,0.003-0.01,0.008-0.016,0.01c-0.011,0.005-0.023,0.01-0.034,0.012c-0.005,0.003-0.009,0.003-0.012,0.005  c-0.016,0.005-0.032,0.005-0.049,0.005c-0.043,0-0.087-0.012-0.125-0.04c-0.427-0.313-0.683-0.816-0.683-1.346  c0-0.918,0.747-1.665,1.665-1.665s1.664,0.747,1.664,1.665C71.184,55.402,70.929,55.905,70.5,56.219z M69.005,52.28h1.029  l-0.515,0.631L69.005,52.28z M75.175,48.699v1.029l-1.029-0.515L75.175,48.699z M73.542,46.698h0.422v16.257h-0.422V46.698z   M72.804,46.698h0.423v16.257h-0.423V46.698z M68.293,46.698h2.453c0.366,0,0.663,0.296,0.663,0.663  c0,0.366-0.297,0.664-0.663,0.664h-2.453c-0.366,0-0.664-0.298-0.664-0.664C67.629,46.995,67.927,46.698,68.293,46.698z   M67.629,48.615h3.78v1.254h-3.78V48.615z M67.344,45.925h8.133V40.33h-8.133V45.925z M73.3,42.47c0.918,0,1.665,0.746,1.665,1.664  c0,0.53-0.256,1.033-0.685,1.345c-0.094,0.069-0.226,0.048-0.294-0.045c-0.068-0.095-0.049-0.227,0.045-0.295  c0.32-0.234,0.512-0.609,0.512-1.005c0-0.685-0.558-1.242-1.243-1.242c-0.613,0-1.123,0.446-1.223,1.032H73.3  c0.116,0,0.211,0.094,0.211,0.21c0,0.117-0.095,0.211-0.211,0.211h-1.223c0.056,0.315,0.229,0.603,0.49,0.794  c0.094,0.068,0.114,0.2,0.046,0.295c-0.042,0.056-0.105,0.087-0.171,0.087c-0.043,0-0.087-0.015-0.124-0.042  c-0.428-0.312-0.684-0.815-0.684-1.345C71.635,43.216,72.382,42.47,73.3,42.47z M69.52,40.735c0.918,0,1.664,0.748,1.664,1.666  c0,0.529-0.255,1.032-0.684,1.345c-0.094,0.068-0.225,0.047-0.294-0.046c-0.068-0.094-0.049-0.226,0.045-0.294  c0.32-0.233,0.512-0.609,0.512-1.004c0-0.686-0.558-1.243-1.243-1.243s-1.243,0.558-1.243,1.243c0,0.324,0.13,0.633,0.353,0.863  l0.72-0.988c0.069-0.094,0.2-0.115,0.296-0.046c0.094,0.069,0.113,0.202,0.045,0.295L68.833,43.7l0,0  c-0.009,0.012-0.018,0.02-0.027,0.028c-0.003,0.003-0.005,0.007-0.007,0.01c-0.009,0.006-0.019,0.01-0.026,0.017  c-0.005,0.003-0.01,0.007-0.016,0.01c-0.011,0.005-0.023,0.009-0.034,0.012c-0.005,0.001-0.009,0.003-0.012,0.004  c-0.016,0.004-0.032,0.005-0.049,0.005c-0.043,0-0.087-0.013-0.125-0.04c-0.427-0.313-0.683-0.816-0.683-1.345  C67.854,41.483,68.602,40.735,69.52,40.735z M15.542,46.347H7.408v17.192h8.133V46.347z M10.822,61.147H8.349v-1.421h2.473V61.147z   M10.822,59.198H8.349v-2.475h2.473V59.198z M10.567,56.219c-0.094,0.068-0.227,0.047-0.295-0.046  c-0.067-0.095-0.047-0.228,0.046-0.296c0.32-0.232,0.51-0.607,0.51-1.004c0-0.686-0.557-1.243-1.242-1.243  c-0.686,0-1.243,0.558-1.243,1.243c0,0.325,0.129,0.634,0.353,0.863l0.72-0.986c0.069-0.095,0.201-0.116,0.294-0.048  c0.095,0.069,0.115,0.202,0.046,0.297l-0.856,1.174l0,0c-0.008,0.01-0.018,0.02-0.027,0.029c-0.002,0.002-0.005,0.004-0.007,0.009  c-0.008,0.005-0.018,0.01-0.026,0.017c-0.005,0.003-0.011,0.008-0.016,0.01c-0.012,0.005-0.023,0.01-0.034,0.012  c-0.005,0.003-0.008,0.003-0.012,0.005c-0.015,0.005-0.032,0.005-0.048,0.005c-0.043,0-0.087-0.012-0.125-0.04  c-0.428-0.313-0.683-0.816-0.683-1.346c0-0.918,0.747-1.665,1.665-1.665s1.664,0.747,1.664,1.665  C11.25,55.402,10.995,55.905,10.567,56.219z M9.071,52.28h1.029l-0.515,0.631L9.071,52.28z M11.476,49.869h-3.78v-1.254h3.78V49.869  z M10.812,48.025H8.359c-0.366,0-0.664-0.298-0.664-0.664c0-0.367,0.298-0.663,0.664-0.663h2.453c0.366,0,0.663,0.296,0.663,0.663  C11.476,47.728,11.179,48.025,10.812,48.025z M13.292,62.955H12.87V46.698h0.422V62.955z M14.03,62.955h-0.422V46.698h0.422V62.955z   M15.241,49.729l-1.029-0.515l1.029-0.515V49.729z M8.035,26.937H7.408V14.408h85.185v12.529h-0.758v-6.806H91.4v6.806h-0.501  v-4.815h-0.436v4.815h-0.502v-1.814h-0.436v1.814h-0.501v-3.196h-0.435v3.196h-0.503v-4.929h-0.434v4.929h-0.502v-5.948h-0.436  v5.948h-0.502v-7.756h-0.434v7.756h-0.503V20.25h-0.435v6.687h-0.503v-3.196h-0.434v3.196h-0.502v-0.75H82.97v0.75h-0.502v-4.343  h-0.434v4.343h-0.503v-5.448h-0.435v5.448h-0.503v-1.42H80.16v1.42h-0.502v-4.343h-0.434v4.343h-0.503v-7.756h-0.435v7.756h-0.503  v-3.683h-0.434v3.683h-0.503v-1.42h-0.435v1.42h-0.502v-4.343h-0.435v4.343h-0.502v-7.756H74.54v7.756h-0.503v-3.196h-0.434v3.196  h-0.502v-1.814h-0.436v1.814h-0.502v-4.815H71.73v4.815h-0.503v-6.806h-0.435v6.806h-0.502v-3.196h-0.435v3.196h-0.502v-1.814  h-0.436v1.814h-0.501v-0.75h-0.435v0.75H67.48v-7.756h-0.434v7.756h-0.503v-2.823h-0.435v2.823h-0.502v-6.082h-0.435v6.082h-0.502  v-3.196h-0.435v3.196h-0.503v-2.099H63.3v2.099h-0.502v-6.263h-0.436v6.263h-0.501v-4.343h-0.436v4.343h-0.502v-1.42H60.49v1.42  h-0.503v-3.683h-0.435v3.683h-0.502v-7.756h-0.436v7.756h-0.501v-4.343H57.68v4.343h-0.503v-1.42h-0.434v1.42H56.24v-5.448h-0.435  v5.448h-0.502v-4.343h-0.435v4.343h-0.502v-0.75h-0.435v0.75H53.43v-3.196h-0.434v3.196h-0.503V20.25h-0.435v6.687h-0.501v-7.756  h-0.436v7.756H50.62v-5.948h-0.434v5.948h-0.503v-4.929h-0.434v4.929h-0.503v-3.196h-0.434v3.196h-0.501v-4.419h-0.434v4.419h-0.503  v-6.814h-0.434v6.814h-0.503v-3.196h-0.435v3.196H45v-1.42h-0.435v1.42h-0.502v-1.004h-0.436v1.004h-0.501v-4.419h-0.434v4.419  h-0.503v-3.196h-0.434v3.196h-0.502v-1.004h-0.435v1.004h-0.502v-1.004h-0.434v1.004h-0.503v-3.196h-0.434v3.196h-0.503v-4.419  h-0.434v4.419h-0.501v-1.004h-0.434v1.004H36.57v-1.42h-0.434v1.42h-0.503v-3.196h-0.434v3.196h-0.503v-6.814h-0.434v6.814H33.76  v-4.419h-0.435v4.419h-0.502v-3.196h-0.434v3.196h-0.503v-4.929h-0.434v4.929H30.95v-5.948h-0.436v5.948h-0.502v-7.756h-0.434v7.756  h-0.503V20.25h-0.435v6.687h-0.503v-3.196h-0.434v3.196h-0.501v-0.75h-0.436v0.75h-0.501v-4.343h-0.434v4.343h-0.503v-5.448h-0.434  v5.448h-0.503v-1.42h-0.434v1.42h-0.502v-4.343h-0.435v4.343h-0.502v-7.756h-0.434v7.756h-0.503v-3.683h-0.434v3.683h-0.503v-1.42  h-0.434v1.42h-0.501v-4.343h-0.436v4.343h-0.501v-6.263h-0.434v6.263h-0.503v-2.099h-0.434v2.099h-0.502v-3.196h-0.436v3.196h-0.501  v-6.082h-0.435v6.082h-0.502v-2.823h-0.434v2.823h-0.503v-7.756h-0.434v7.756h-0.503v-0.75h-0.434v0.75h-0.502v-1.814h-0.434v1.814  h-0.503v-3.196h-0.434v3.196h-0.503v-6.806H9.907v6.806H9.406v-4.815H8.972v4.815H8.469v-1.814H8.035V26.937z M15.542,40.33H7.408  v5.595h8.133V40.33z M10.567,43.746c-0.094,0.068-0.227,0.047-0.295-0.046c-0.067-0.094-0.047-0.226,0.046-0.294  c0.32-0.233,0.51-0.609,0.51-1.004c0-0.686-0.557-1.243-1.242-1.243c-0.686,0-1.243,0.558-1.243,1.243  c0,0.324,0.129,0.633,0.353,0.863l0.72-0.988c0.069-0.094,0.201-0.115,0.294-0.046c0.095,0.069,0.115,0.202,0.046,0.295L8.899,43.7  l0,0c-0.008,0.012-0.018,0.02-0.027,0.028c-0.002,0.003-0.005,0.007-0.007,0.01c-0.008,0.006-0.018,0.01-0.026,0.017  c-0.005,0.003-0.011,0.007-0.016,0.01C8.812,43.77,8.8,43.773,8.789,43.777c-0.005,0.001-0.008,0.003-0.012,0.004  c-0.015,0.004-0.032,0.005-0.048,0.005c-0.043,0-0.087-0.013-0.125-0.04c-0.428-0.313-0.683-0.816-0.683-1.345  c0-0.918,0.747-1.666,1.665-1.666s1.664,0.748,1.664,1.666C11.25,42.93,10.995,43.433,10.567,43.746z M14.347,45.479  c-0.093,0.069-0.225,0.048-0.294-0.045c-0.069-0.095-0.049-0.227,0.045-0.295c0.32-0.234,0.511-0.609,0.511-1.005  c0-0.685-0.559-1.242-1.243-1.242c-0.613,0-1.124,0.446-1.224,1.032h1.224c0.116,0,0.211,0.094,0.211,0.21  c0,0.117-0.095,0.211-0.211,0.211h-1.223c0.055,0.315,0.229,0.603,0.49,0.794c0.095,0.068,0.115,0.2,0.046,0.295  c-0.042,0.056-0.105,0.087-0.171,0.087c-0.042,0-0.086-0.015-0.125-0.042c-0.427-0.312-0.683-0.815-0.683-1.345  c0-0.918,0.748-1.664,1.666-1.664s1.664,0.746,1.664,1.664C15.03,44.664,14.775,45.167,14.347,45.479z M92.593,39.9H7.408V27.371  h0.626v1.814h0.434v-1.814h0.503v4.815h0.434v-4.815h0.501v6.807h0.434v-6.807h0.503v3.196h0.434v-3.196h0.503v1.814h0.434v-1.814  h0.502v0.75h0.434v-0.75h0.503v7.757h0.434v-7.757h0.503v2.824h0.434v-2.824h0.502v6.082h0.435v-6.082h0.501v3.196h0.436v-3.196  h0.502v2.099h0.434v-2.099h0.503v6.263h0.434v-6.263h0.501v4.343h0.436v-4.343h0.501v1.42h0.434v-1.42h0.503v3.684h0.434v-3.684  h0.503v7.757h0.434v-7.757h0.502v4.343h0.435v-4.343h0.502v1.42h0.434v-1.42h0.503v5.448h0.434v-5.448h0.503v4.343h0.434v-4.343  h0.501v0.75h0.436v-0.75h0.501v3.196h0.434v-3.196h0.503v6.688h0.435v-6.688h0.503v7.757h0.434v-7.757h0.502v5.948h0.436v-5.948  h0.501V32.3h0.434v-4.929h0.503v3.196h0.434v-3.196h0.502v4.419h0.435v-4.419h0.502v6.815h0.434v-6.815h0.503v3.196h0.434v-3.196  h0.503v1.42h0.434v-1.42h0.503v1.005h0.434v-1.005h0.501v4.419h0.434v-4.419h0.503v3.196h0.434v-3.196h0.503v1.005h0.434v-1.005  h0.502v1.005h0.435v-1.005h0.502v3.196h0.434v-3.196h0.503v4.419h0.434v-4.419h0.501v1.005h0.436v-1.005h0.502v1.42H45v-1.42h0.501  v3.196h0.435v-3.196h0.503v6.815h0.434v-6.815h0.503v4.419h0.434v-4.419h0.501v3.196h0.434v-3.196h0.503V32.3h0.434v-4.929h0.503  v5.948h0.434v-5.948h0.502v7.757h0.436v-7.757h0.501v6.688h0.435v-6.688h0.503v3.196h0.434v-3.196h0.503v0.75h0.435v-0.75h0.502  v4.343h0.435v-4.343h0.502v5.448h0.435v-5.448h0.503v1.42h0.434v-1.42h0.503v4.343h0.435v-4.343h0.501v7.757h0.436v-7.757h0.502  v3.684h0.435v-3.684h0.503v1.42h0.434v-1.42h0.502v4.343h0.436v-4.343h0.501v6.263h0.436v-6.263H63.3v2.099h0.434v-2.099h0.503  v3.196h0.435v-3.196h0.502v6.082h0.435v-6.082h0.502v2.824h0.435v-2.824h0.503v7.757h0.434v-7.757h0.503v0.75h0.435v-0.75h0.501  v1.814h0.436v-1.814h0.502v3.196h0.435v-3.196h0.502v6.807h0.435v-6.807h0.503v4.815h0.434v-4.815h0.502v1.814h0.436v-1.814h0.502  v3.196h0.434v-3.196h0.503v7.757h0.435v-7.757h0.502v4.343h0.435v-4.343h0.502v1.42h0.435v-1.42h0.503v3.684h0.434v-3.684h0.503  v7.757h0.435v-7.757h0.503v4.343h0.434v-4.343h0.502v1.42h0.434v-1.42h0.503v5.448h0.435v-5.448h0.503v4.343h0.434v-4.343h0.502  v0.75h0.436v-0.75h0.502v3.196h0.434v-3.196h0.503v6.688h0.435v-6.688h0.503v7.757h0.434v-7.757h0.502v5.948h0.436v-5.948h0.502  V32.3h0.434v-4.929h0.503v3.196h0.435v-3.196h0.501v1.814h0.436v-1.814h0.502v4.815h0.436v-4.815H91.4v6.807h0.435v-6.807h0.758  V39.9z M58.786,63.539h8.134V46.347h-8.134V63.539z M62.2,61.147h-2.473v-1.421H62.2V61.147z M62.2,59.198h-2.473v-2.475H62.2  V59.198z M61.945,56.219c-0.094,0.068-0.226,0.047-0.294-0.046c-0.069-0.095-0.049-0.228,0.045-0.296  c0.32-0.232,0.511-0.607,0.511-1.004c0-0.686-0.558-1.243-1.243-1.243s-1.243,0.558-1.243,1.243c0,0.325,0.131,0.634,0.353,0.863  l0.72-0.986c0.069-0.095,0.201-0.116,0.296-0.048c0.094,0.069,0.114,0.202,0.046,0.297l-0.857,1.174l0,0  c-0.008,0.01-0.017,0.02-0.026,0.029c-0.003,0.002-0.006,0.004-0.008,0.009c-0.009,0.005-0.018,0.01-0.026,0.017  c-0.006,0.003-0.011,0.008-0.016,0.01c-0.011,0.005-0.022,0.01-0.034,0.012c-0.005,0.003-0.008,0.003-0.012,0.005  c-0.016,0.005-0.032,0.005-0.049,0.005c-0.042,0-0.086-0.012-0.124-0.04c-0.428-0.313-0.684-0.816-0.684-1.346  c0-0.918,0.747-1.665,1.665-1.665s1.664,0.747,1.664,1.665C62.628,55.402,62.373,55.905,61.945,56.219z M60.449,52.28h1.029  l-0.515,0.631L60.449,52.28z M66.619,48.699v1.029l-1.029-0.515L66.619,48.699z M64.986,46.698h0.422v16.257h-0.422V46.698z   M64.248,46.698h0.423v16.257h-0.423V46.698z M59.738,46.698h2.452c0.366,0,0.663,0.296,0.663,0.663  c0,0.366-0.297,0.664-0.663,0.664h-2.452c-0.367,0-0.665-0.298-0.665-0.664C59.073,46.995,59.371,46.698,59.738,46.698z   M59.073,48.615h3.78v1.254h-3.78V48.615z M41.654,63.539h8.131V46.347h-8.131V63.539z M45.066,61.147h-2.473v-1.421h2.473V61.147z   M45.066,59.198h-2.473v-2.475h2.473V59.198z M44.811,56.219c-0.094,0.068-0.227,0.047-0.294-0.046  c-0.07-0.095-0.049-0.228,0.045-0.296c0.319-0.232,0.51-0.607,0.51-1.004c0-0.686-0.558-1.243-1.242-1.243  c-0.686,0-1.243,0.558-1.243,1.243c0,0.325,0.129,0.634,0.352,0.863l0.72-0.986c0.069-0.095,0.2-0.116,0.294-0.048  c0.095,0.069,0.115,0.202,0.046,0.297l-0.856,1.174l0,0c-0.008,0.01-0.018,0.02-0.027,0.029c-0.002,0.002-0.005,0.004-0.008,0.009  c-0.007,0.005-0.017,0.01-0.025,0.017c-0.006,0.003-0.011,0.008-0.015,0.01c-0.012,0.005-0.024,0.01-0.035,0.012  c-0.005,0.003-0.008,0.003-0.012,0.005c-0.017,0.005-0.032,0.005-0.049,0.005c-0.042,0-0.086-0.012-0.125-0.04  c-0.428-0.313-0.683-0.816-0.683-1.346c0-0.918,0.747-1.665,1.666-1.665c0.918,0,1.664,0.747,1.664,1.665  C45.494,55.402,45.239,55.905,44.811,56.219z M43.314,52.28h1.029l-0.515,0.631L43.314,52.28z M49.485,48.699v1.029l-1.031-0.515  L49.485,48.699z M47.852,46.698h0.422v16.257h-0.422V46.698z M47.114,46.698h0.422v16.257h-0.422V46.698z M42.604,46.698h2.453  c0.367,0,0.663,0.296,0.663,0.663c0,0.366-0.296,0.664-0.663,0.664h-2.453c-0.367,0-0.665-0.298-0.665-0.664  C41.939,46.995,42.237,46.698,42.604,46.698z M41.939,48.615h3.78v1.254h-3.78V48.615z M33.101,45.925h8.129V40.33h-8.129V45.925z   M39.056,42.47c0.918,0,1.666,0.746,1.666,1.664c0,0.53-0.256,1.033-0.683,1.345c-0.095,0.069-0.227,0.048-0.295-0.045  c-0.069-0.095-0.049-0.227,0.046-0.295c0.319-0.234,0.51-0.609,0.51-1.005c0-0.685-0.558-1.242-1.243-1.242  c-0.613,0-1.123,0.446-1.223,1.032h1.223c0.116,0,0.211,0.094,0.211,0.21c0,0.117-0.095,0.211-0.211,0.211h-1.223  c0.056,0.315,0.229,0.603,0.491,0.794c0.093,0.068,0.114,0.2,0.045,0.295c-0.042,0.056-0.105,0.087-0.171,0.087  c-0.043,0-0.086-0.015-0.124-0.042c-0.428-0.312-0.684-0.815-0.684-1.345C37.391,43.216,38.138,42.47,39.056,42.47z M35.276,40.735  c0.918,0,1.665,0.748,1.665,1.666c0,0.529-0.256,1.032-0.684,1.345c-0.094,0.068-0.226,0.047-0.294-0.046s-0.048-0.226,0.045-0.294  c0.32-0.233,0.511-0.609,0.511-1.004c0-0.686-0.557-1.243-1.243-1.243c-0.686,0-1.243,0.558-1.243,1.243  c0,0.324,0.129,0.633,0.352,0.863l0.72-0.988c0.069-0.094,0.2-0.115,0.295-0.046c0.094,0.069,0.115,0.202,0.046,0.295L34.589,43.7  l0,0c-0.008,0.012-0.017,0.02-0.026,0.028c-0.004,0.003-0.006,0.007-0.008,0.01c-0.008,0.006-0.017,0.01-0.026,0.017  c-0.006,0.003-0.011,0.007-0.015,0.01c-0.011,0.005-0.023,0.009-0.035,0.012c-0.005,0.001-0.008,0.003-0.012,0.004  c-0.016,0.004-0.032,0.005-0.049,0.005c-0.042,0-0.086-0.013-0.125-0.04c-0.427-0.313-0.683-0.816-0.683-1.345  C33.61,41.483,34.357,40.735,35.276,40.735z M33.101,63.539h8.129V46.347h-8.129V63.539z M36.512,61.147h-2.473v-1.421h2.473V61.147  z M36.512,59.198h-2.473v-2.475h2.473V59.198z M36.257,56.219c-0.094,0.068-0.226,0.047-0.294-0.046  c-0.069-0.095-0.048-0.228,0.045-0.296c0.32-0.232,0.511-0.607,0.511-1.004c0-0.686-0.557-1.243-1.243-1.243  c-0.686,0-1.243,0.558-1.243,1.243c0,0.325,0.129,0.634,0.352,0.863l0.72-0.986c0.069-0.095,0.2-0.116,0.295-0.048  c0.094,0.069,0.115,0.202,0.046,0.297l-0.857,1.174l0,0c-0.008,0.01-0.017,0.02-0.026,0.029c-0.004,0.002-0.006,0.004-0.008,0.009  c-0.008,0.005-0.017,0.01-0.026,0.017c-0.006,0.003-0.011,0.008-0.015,0.01c-0.011,0.005-0.023,0.01-0.035,0.012  c-0.005,0.003-0.008,0.003-0.012,0.005c-0.016,0.005-0.032,0.005-0.049,0.005c-0.042,0-0.086-0.012-0.125-0.04  c-0.427-0.313-0.683-0.816-0.683-1.346c0-0.918,0.747-1.665,1.666-1.665c0.918,0,1.665,0.747,1.665,1.665  C36.941,55.402,36.685,55.905,36.257,56.219z M34.761,52.28h1.03l-0.515,0.631L34.761,52.28z M40.931,48.699v1.029l-1.03-0.515  L40.931,48.699z M39.298,46.698h0.422v16.257h-0.422V46.698z M38.56,46.698h0.422v16.257H38.56V46.698z M34.049,46.698h2.453  c0.367,0,0.663,0.296,0.663,0.663c0,0.366-0.296,0.664-0.663,0.664h-2.453c-0.367,0-0.665-0.298-0.665-0.664  C33.385,46.995,33.683,46.698,34.049,46.698z M33.385,48.615h3.78v1.254h-3.78V48.615z M24.542,45.925h8.133V40.33h-8.133V45.925z   M30.5,42.47c0.918,0,1.665,0.746,1.665,1.664c0,0.53-0.255,1.033-0.683,1.345c-0.095,0.069-0.227,0.048-0.295-0.045  c-0.069-0.095-0.048-0.227,0.046-0.295c0.319-0.234,0.51-0.609,0.51-1.005c0-0.685-0.558-1.242-1.243-1.242  c-0.613,0-1.122,0.446-1.223,1.032H30.5c0.116,0,0.211,0.094,0.211,0.21c0,0.117-0.095,0.211-0.211,0.211h-1.222  c0.055,0.315,0.228,0.603,0.49,0.794c0.094,0.068,0.114,0.2,0.045,0.295c-0.04,0.056-0.104,0.087-0.169,0.087  c-0.044,0-0.088-0.015-0.125-0.042c-0.428-0.312-0.685-0.815-0.685-1.345C28.835,43.216,29.583,42.47,30.5,42.47z M26.72,40.735  c0.918,0,1.666,0.748,1.666,1.666c0,0.529-0.256,1.032-0.685,1.345c-0.094,0.068-0.225,0.047-0.294-0.046s-0.049-0.226,0.046-0.294  c0.319-0.233,0.51-0.609,0.51-1.004c0-0.686-0.558-1.243-1.243-1.243s-1.243,0.558-1.243,1.243c0,0.324,0.13,0.633,0.352,0.863  l0.72-0.988c0.068-0.094,0.2-0.115,0.295-0.046c0.094,0.069,0.115,0.202,0.046,0.295L26.034,43.7l0,0  c-0.008,0.012-0.017,0.02-0.026,0.028c-0.003,0.003-0.006,0.007-0.008,0.01c-0.008,0.006-0.017,0.01-0.026,0.017  c-0.005,0.003-0.009,0.007-0.016,0.01c-0.01,0.005-0.022,0.009-0.034,0.012c-0.003,0.001-0.007,0.003-0.012,0.004  c-0.016,0.004-0.032,0.005-0.049,0.005c-0.042,0-0.086-0.013-0.124-0.04c-0.428-0.313-0.684-0.816-0.684-1.345  C25.055,41.483,25.802,40.735,26.72,40.735z M58.786,45.925h8.134V40.33h-8.134V45.925z M64.744,42.47  c0.918,0,1.665,0.746,1.665,1.664c0,0.53-0.256,1.033-0.683,1.345c-0.095,0.069-0.227,0.048-0.296-0.045  c-0.068-0.095-0.048-0.227,0.047-0.295c0.319-0.234,0.51-0.609,0.51-1.005c0-0.685-0.558-1.242-1.243-1.242  c-0.613,0-1.122,0.446-1.223,1.032h1.223c0.116,0,0.211,0.094,0.211,0.21c0,0.117-0.095,0.211-0.211,0.211h-1.223  c0.056,0.315,0.229,0.603,0.491,0.794c0.094,0.068,0.113,0.2,0.045,0.295c-0.042,0.056-0.105,0.087-0.17,0.087  c-0.044,0-0.088-0.015-0.124-0.042c-0.429-0.312-0.685-0.815-0.685-1.345C63.079,43.216,63.826,42.47,64.744,42.47z M60.964,40.735  c0.918,0,1.664,0.748,1.664,1.666c0,0.529-0.255,1.032-0.683,1.345c-0.094,0.068-0.226,0.047-0.294-0.046  c-0.069-0.094-0.049-0.226,0.045-0.294c0.32-0.233,0.511-0.609,0.511-1.004c0-0.686-0.558-1.243-1.243-1.243  s-1.243,0.558-1.243,1.243c0,0.324,0.131,0.633,0.353,0.863l0.72-0.988c0.069-0.094,0.201-0.115,0.296-0.046  c0.094,0.069,0.114,0.202,0.046,0.295L60.277,43.7l0,0c-0.008,0.012-0.017,0.02-0.026,0.028c-0.003,0.003-0.006,0.007-0.008,0.01  c-0.009,0.006-0.018,0.01-0.026,0.017c-0.006,0.003-0.011,0.007-0.016,0.01c-0.011,0.005-0.022,0.009-0.034,0.012  c-0.005,0.001-0.008,0.003-0.012,0.004c-0.016,0.004-0.032,0.005-0.049,0.005c-0.042,0-0.086-0.013-0.124-0.04  c-0.428-0.313-0.684-0.816-0.684-1.345C59.299,41.483,60.046,40.735,60.964,40.735z M24.542,63.539h8.133V46.347h-8.133V63.539z   M27.958,61.147h-2.473v-1.421h2.473V61.147z M27.958,59.198h-2.473v-2.475h2.473V59.198z M27.701,56.219  c-0.094,0.068-0.225,0.047-0.294-0.046c-0.069-0.095-0.049-0.228,0.046-0.296c0.319-0.232,0.51-0.607,0.51-1.004  c0-0.686-0.558-1.243-1.243-1.243s-1.243,0.558-1.243,1.243c0,0.325,0.13,0.634,0.352,0.863l0.72-0.986  c0.068-0.095,0.2-0.116,0.295-0.048c0.094,0.069,0.115,0.202,0.046,0.297l-0.857,1.174l0,0c-0.008,0.01-0.017,0.02-0.026,0.029  c-0.003,0.002-0.006,0.004-0.008,0.009c-0.008,0.005-0.017,0.01-0.026,0.017c-0.005,0.003-0.009,0.008-0.016,0.01  c-0.01,0.005-0.022,0.01-0.034,0.012c-0.003,0.003-0.007,0.003-0.012,0.005c-0.016,0.005-0.032,0.005-0.049,0.005  c-0.042,0-0.086-0.012-0.124-0.04c-0.428-0.313-0.684-0.816-0.684-1.346c0-0.918,0.747-1.665,1.665-1.665s1.666,0.747,1.666,1.665  C28.386,55.402,28.129,55.905,27.701,56.219z M26.206,52.28h1.03l-0.515,0.631L26.206,52.28z M32.375,48.699v1.029l-1.029-0.515  L32.375,48.699z M30.742,46.698h0.422v16.257h-0.422V46.698z M30.006,46.698h0.421v16.257h-0.421V46.698z M25.494,46.698h2.453  c0.367,0,0.664,0.296,0.664,0.663c0,0.366-0.297,0.664-0.664,0.664h-2.453c-0.367,0-0.663-0.298-0.663-0.664  C24.831,46.995,25.127,46.698,25.494,46.698z M24.831,48.615h3.78v1.254h-3.78V48.615z M50.208,45.925h8.133V40.33h-8.133V45.925z   M56.165,42.47c0.918,0,1.664,0.746,1.664,1.664c0,0.53-0.255,1.033-0.683,1.345c-0.094,0.069-0.227,0.048-0.296-0.045  c-0.068-0.095-0.047-0.227,0.047-0.295c0.32-0.234,0.51-0.609,0.51-1.005c0-0.685-0.558-1.242-1.242-1.242  c-0.613,0-1.123,0.446-1.224,1.032h1.224c0.116,0,0.21,0.094,0.21,0.21c0,0.117-0.094,0.211-0.21,0.211h-1.223  c0.055,0.315,0.228,0.603,0.49,0.794c0.095,0.068,0.114,0.2,0.046,0.295c-0.041,0.056-0.105,0.087-0.171,0.087  c-0.043,0-0.087-0.015-0.124-0.042c-0.429-0.312-0.684-0.815-0.684-1.345C54.5,43.216,55.247,42.47,56.165,42.47z M52.384,40.735  c0.918,0,1.665,0.748,1.665,1.666c0,0.529-0.255,1.032-0.683,1.345c-0.094,0.068-0.227,0.047-0.296-0.046  c-0.068-0.094-0.047-0.226,0.047-0.294c0.318-0.233,0.51-0.609,0.51-1.004c0-0.686-0.558-1.243-1.243-1.243  c-0.685,0-1.241,0.558-1.241,1.243c0,0.324,0.129,0.633,0.351,0.863l0.722-0.988c0.068-0.094,0.2-0.115,0.294-0.046  c0.095,0.069,0.114,0.202,0.046,0.295L51.698,43.7l0,0c-0.008,0.012-0.018,0.02-0.027,0.028c-0.002,0.003-0.005,0.007-0.008,0.01  c-0.009,0.006-0.017,0.01-0.025,0.017c-0.006,0.003-0.011,0.007-0.017,0.01c-0.011,0.005-0.022,0.009-0.033,0.012  c-0.005,0.001-0.008,0.003-0.012,0.004c-0.017,0.004-0.032,0.005-0.049,0.005c-0.042,0-0.086-0.013-0.124-0.04  c-0.429-0.313-0.684-0.816-0.684-1.345C50.72,41.483,51.466,40.735,52.384,40.735z M41.654,45.925h8.131V40.33h-8.131V45.925z   M47.61,42.47c0.918,0,1.664,0.746,1.664,1.664c0,0.53-0.255,1.033-0.683,1.345c-0.094,0.069-0.227,0.048-0.294-0.045  c-0.069-0.095-0.049-0.227,0.045-0.295c0.32-0.234,0.511-0.609,0.511-1.005c0-0.685-0.559-1.242-1.243-1.242  c-0.613,0-1.123,0.446-1.224,1.032h1.224c0.116,0,0.211,0.094,0.211,0.21c0,0.117-0.095,0.211-0.211,0.211h-1.223  c0.054,0.315,0.229,0.603,0.49,0.794c0.095,0.068,0.115,0.2,0.046,0.295c-0.042,0.056-0.106,0.087-0.171,0.087  c-0.043,0-0.086-0.015-0.125-0.042c-0.428-0.312-0.683-0.815-0.683-1.345C45.945,43.216,46.692,42.47,47.61,42.47z M43.83,40.735  c0.918,0,1.664,0.748,1.664,1.666c0,0.529-0.255,1.032-0.684,1.345c-0.094,0.068-0.227,0.047-0.294-0.046  c-0.07-0.094-0.049-0.226,0.045-0.294c0.319-0.233,0.51-0.609,0.51-1.004c0-0.686-0.558-1.243-1.242-1.243  c-0.686,0-1.243,0.558-1.243,1.243c0,0.324,0.129,0.633,0.352,0.863l0.72-0.988c0.069-0.094,0.2-0.115,0.294-0.046  c0.095,0.069,0.115,0.202,0.046,0.295L43.143,43.7l0,0c-0.008,0.012-0.018,0.02-0.027,0.028c-0.002,0.003-0.005,0.007-0.008,0.01  c-0.007,0.006-0.017,0.01-0.025,0.017c-0.006,0.003-0.011,0.007-0.015,0.01c-0.012,0.005-0.024,0.009-0.035,0.012  c-0.005,0.001-0.008,0.003-0.012,0.004c-0.017,0.004-0.032,0.005-0.049,0.005c-0.042,0-0.086-0.013-0.125-0.04  c-0.428-0.313-0.683-0.816-0.683-1.345C42.165,41.483,42.912,40.735,43.83,40.735z M50.208,63.539h8.133V46.347h-8.133V63.539z   M53.621,61.147h-2.473v-1.421h2.473V61.147z M53.621,59.198h-2.473v-2.475h2.473V59.198z M53.366,56.219  c-0.094,0.068-0.227,0.047-0.296-0.046c-0.068-0.095-0.047-0.228,0.047-0.296c0.318-0.232,0.51-0.607,0.51-1.004  c0-0.686-0.558-1.243-1.243-1.243c-0.685,0-1.241,0.558-1.241,1.243c0,0.325,0.129,0.634,0.351,0.863l0.722-0.986  c0.068-0.095,0.2-0.116,0.294-0.048c0.095,0.069,0.114,0.202,0.046,0.297l-0.856,1.174l0,0c-0.008,0.01-0.018,0.02-0.027,0.029  c-0.002,0.002-0.005,0.004-0.008,0.009c-0.009,0.005-0.017,0.01-0.025,0.017c-0.006,0.003-0.011,0.008-0.017,0.01  c-0.011,0.005-0.022,0.01-0.033,0.012c-0.005,0.003-0.008,0.003-0.012,0.005c-0.017,0.005-0.032,0.005-0.049,0.005  c-0.042,0-0.086-0.012-0.124-0.04c-0.429-0.313-0.684-0.816-0.684-1.346c0-0.918,0.746-1.665,1.664-1.665s1.665,0.747,1.665,1.665  C54.049,55.402,53.794,55.905,53.366,56.219z M51.869,52.28h1.029l-0.515,0.631L51.869,52.28z M58.039,48.699v1.029l-1.028-0.515  L58.039,48.699z M56.407,46.698h0.421v16.257h-0.421V46.698z M55.67,46.698h0.422v16.257H55.67V46.698z M51.157,46.698h2.454  c0.365,0,0.663,0.296,0.663,0.663c0,0.366-0.298,0.664-0.663,0.664h-2.454c-0.366,0-0.663-0.298-0.663-0.664  C50.495,46.995,50.791,46.698,51.157,46.698z M50.495,48.615h3.78v1.254h-3.78V48.615z"/><text x="0" y="115" fill="#000000" font-size="5px" font-weight="bold" font-family="'Helvetica Neue', Helvetica, Arial-Unicode, Arial, Sans-serif">Created by Iconic</text><text x="0" y="120" fill="#000000" font-size="5px" font-weight="bold" font-family="'Helvetica Neue', Helvetica, Arial-Unicode, Arial, Sans-serif">from the Noun Project</text></svg>