<?xml version="1.0" encoding="UTF-8" standalone="no"?>
<!-- Created with Inkscape (http://www.inkscape.org/) -->

<svg
   xmlns:dc="http://purl.org/dc/elements/1.1/"
   xmlns:cc="http://creativecommons.org/ns#"
   xmlns:rdf="http://www.w3.org/1999/02/22-rdf-syntax-ns#"
   xmlns:svg="http://www.w3.org/2000/svg"
   xmlns="http://www.w3.org/2000/svg"
   xmlns:sodipodi="http://sodipodi.sourceforge.net/DTD/sodipodi-0.dtd"
   xmlns:inkscape="http://www.inkscape.org/namespaces/inkscape"
   width="106.94683mm"
   height="63.505249mm"
   viewBox="0 0 378.94546 225.0186"
   id="svg4163"
   version="1.1"
   inkscape:version="0.91 r13725"
   sodipodi:docname="amiktitle.svg">
  <defs
     id="defs4165" />
  <sodipodi:namedview
     id="base"
     pagecolor="#ffffff"
     bordercolor="#666666"
     borderopacity="1.0"
     inkscape:pageopacity="0.0"
     inkscape:pageshadow="2"
     inkscape:zoom="0.35"
     inkscape:cx="-296.95584"
     inkscape:cy="9.652153"
     inkscape:document-units="px"
     inkscape:current-layer="layer1"
     showgrid="false"
     fit-margin-top="0"
     fit-margin-left="0"
     fit-margin-right="0"
     fit-margin-bottom="0"
     inkscape:window-width="1600"
     inkscape:window-height="877"
     inkscape:window-x="-8"
     inkscape:window-y="-8"
     inkscape:window-maximized="1" />
  <metadata
     id="metadata4168">
    <rdf:RDF>
      <cc:Work
         rdf:about="">
        <dc:format>image/svg+xml</dc:format>
        <dc:type
           rdf:resource="http://purl.org/dc/dcmitype/StillImage" />
        <dc:title></dc:title>
      </cc:Work>
    </rdf:RDF>
  </metadata>
  <g
     inkscape:label="Layer 1"
     inkscape:groupmode="layer"
     id="layer1"
     transform="translate(-236.24156,-316.99576)">
    <path
       style="fill:#ffffff;stroke:#ffffff;stroke-width:1.70940173;stroke-miterlimit:4;stroke-dasharray:none"
       d="m 360.3152,317.85431 c -1.71193,-0.0339 -3.82333,0.16256 -6.75,0.48633 -29.30412,3.24187 -57.80688,25.50277 -79.65625,62.20898 -29.11519,48.91253 -40.79268,88.00116 -35.62305,119.25 3.86921,23.38822 10.58932,33.71273 25.37891,38.99023 3.53455,1.26127 8.40428,2.32599 10.82227,2.36719 7.69572,0.13134 19.31763,-4.88208 26.61523,-11.48047 7.34551,-6.6417 29.51948,-31.64301 35.99024,-40.58008 l 3.71289,-5.1289 -0.98633,18.99804 c -1.23567,23.80636 -0.45073,27.06181 7.41211,30.79297 7.34407,3.48499 9.52162,2.51143 16.87695,-7.53515 5.95966,-8.14026 7.69141,-8.82381 7.69141,-3.03516 0,2.298 1.84313,6.3207 4.0957,8.93945 3.55062,4.12785 4.71034,4.53968 8.70898,3.08789 3.6791,-1.33578 7.2336,-6.77667 17.57227,-26.88867 7.12868,-13.86752 13.69476,-25.21484 14.58984,-25.21484 1.72545,0 0.62692,23.67194 -1.40039,30.18555 -1.53462,4.93058 4.42286,10.84179 10.92578,10.84179 5.91243,0 6.10577,-0.23297 16.40235,-19.6582 4.48513,-8.46154 8.6924,-15.97819 9.34961,-16.70313 0.65723,-0.72494 1.14102,5.97207 1.07422,14.88282 -0.14555,19.41068 1.62899,22.39644 12.91601,21.73046 8.35542,-0.49301 14.43134,-3.3537 20.16602,-9.49218 4.83816,-5.1788 6.96311,-5.61941 6.97851,-1.44532 0.0324,8.60713 12.54074,19.20291 22.69141,19.22071 6.84868,0.0119 7.95367,-1.21432 8.55664,-9.50391 0.32027,-4.40301 -0.26061,-5.08567 -4.76367,-5.59375 -11.88253,-1.34068 -12.1824,-7.462 -1.64453,-33.49805 9.52685,-23.53816 10.01224,-27.52032 3.91601,-32.15234 -2.51205,-1.90871 -5.75448,-3.01368 -7.20508,-2.45703 -1.4506,0.55664 -5.28651,6.26957 -8.52343,12.69727 -4.14211,8.22511 -9.48595,15.08386 -18.04102,23.15429 -6.68556,6.30681 -12.93466,11.4668 -13.88672,11.4668 -3.43805,0 -3.75035,-5.63188 -1.0039,-18.13086 3.88434,-17.67747 3.70963,-30.08867 -0.47852,-33.87891 -5.37286,-4.86236 -10.47387,-2.64573 -19.37695,8.41993 -4.53859,5.64103 -9.15987,10.25585 -10.27149,10.25585 -1.11163,0 -2.60082,-3.46063 -3.30859,-7.6914 -1.65052,-9.86599 -7.05132,-14.66889 -18.2207,-16.20508 -5.03003,-0.6918 -9.73315,-2.51413 -11.48438,-4.44922 -3.93621,-4.34945 -8.47318,-4.14427 -11.74805,0.53125 -2.40083,3.42768 -11.66548,31.25752 -18.65625,56.03711 -2.6654,9.44786 -8.59814,15.36719 -15.39843,15.36719 -3.48932,0 -6.20704,-5.25552 -6.20704,-12.00586 0,-7.98969 14.32102,-63.18593 21.5,-82.86523 20.31892,-55.69902 22.26347,-69.23047 9.94532,-69.23047 -2.64776,0 -5.0814,-2.24109 -8.18164,-7.53125 -2.42732,-4.14191 -7.43753,-9.92483 -11.13282,-12.85156 -4.33873,-3.43634 -6.1732,-4.63053 -9.93945,-4.70508 z m -10.16992,16.56445 c 4.02524,-0.0218 7.36393,0.82487 9.13672,2.59766 1.45843,1.45842 4.01242,2.18225 5.75586,1.62891 3.7086,-1.17707 6.76172,3.50098 6.76172,10.36132 0,3.86631 -4.94088,27.0947 -7.88672,37.07617 -0.48221,1.6339 -3.3099,3.60259 -6.28321,4.37305 -4.40213,1.14071 -5.68463,2.57715 -6.90429,7.73437 -1.84866,7.81694 -0.60867,11.41797 3.92773,11.41797 4.16295,0 4.24489,1.57843 0.85547,16.19336 -2.19206,9.45194 -5.26907,15.07325 -19.01758,34.72266 -26.03705,37.21223 -37.91025,50.17388 -53.96484,58.91406 -10.03992,5.46576 -10.6086,5.5228 -18.08985,1.83594 -18.04663,-8.89362 -17.49265,-48.4212 1.36719,-97.50586 12.26636,-31.92444 45.85558,-74.40222 67.27149,-85.07422 5.58352,-2.78239 11.895,-4.2474 17.07031,-4.27539 z m 203.35937,14.01563 c -4.85038,0.008 -8.60201,4.78088 -12.27539,14.85547 -4.3623,11.96402 -4.57794,18.49088 -0.75,22.7207 1.57667,1.74221 3.69043,2.90992 4.69922,2.59375 2.70575,-0.84803 13.31579,-17.13498 16.99805,-26.09375 3.1235,-7.59935 3.1235,-7.83559 0,-10.24219 -3.28923,-2.53428 -6.1312,-3.83793 -8.67188,-3.83398 z m 39.33204,52.63281 c -6.09624,0.23559 -15.21544,4.07921 -17.84571,8.82421 -6.29115,11.34925 -22.90363,66.8064 -28.07812,93.73438 -5.86453,30.51897 -2.10911,36.61922 16.69922,27.13086 3.48818,-1.75971 6.65103,-3.19922 7.02929,-3.19922 0.37827,0 3.67907,2.38296 7.33399,5.29492 6.0475,4.81818 7.53014,5.23139 16.47656,4.5918 7.94965,-0.56833 10.81153,-1.6436 14.95703,-5.61524 5.94214,-5.69291 6.44542,-9.38614 1.8457,-13.54882 -2.68145,-2.42668 -5.02395,-2.75143 -12.82031,-1.77735 -9.42125,1.17711 -9.54101,1.1377 -9.54101,-3.21484 0,-6.3266 5.71898,-19.93728 13.65429,-32.50195 7.97545,-12.62823 8.36822,-15.40986 2.70117,-19.12305 -7.12837,-4.67069 -11.85873,-0.28607 -25.75585,23.875 -7.33663,12.75523 -11.11133,15.86499 -11.11133,9.1543 0,-5.55371 20.62663,-68.25799 26.28906,-79.91797 2.501,-5.15003 4.17188,-10.34099 3.71289,-11.53711 -0.62851,-1.63787 -2.77586,-2.27701 -5.54687,-2.16992 z"
       id="path4146"
       inkscape:connector-curvature="0" />
  </g>
</svg>
