<svg xmlns="http://www.w3.org/2000/svg" xmlns:xlink="http://www.w3.org/1999/xlink" version="1.1" x="0px" y="0px" viewBox="0 0 128 160" style="enable-background:new 0 0 128 128;" xml:space="preserve"><g><path d="M52.1972961,20.1455002L31.3705959,0.543457c-0.8042011-0.756348-2.0703011-0.719238-2.8271008,0.085938   c-0.7568989,0.804195-0.7187996,2.0698249,0.0859013,2.8271451L49.4062958,23.0112   C49.5907936,22.7807999,52.1972961,20.1455002,52.1972961,20.1455002z"/><path d="M99.4570007,0.662598c-0.7568054-0.804688-2.0229034-0.844727-2.8271103-0.086914L75.8090973,20.1518993   c0,0,2.6039963,2.6337013,2.7899933,2.8670998L99.3700943,3.4897499   C100.1747971,2.7334001,100.2138901,1.46729,99.4570007,0.662598z"/><path d="M75.8837967,35.7733994l-3.3877029,3.3876991l8.530304,41.480999l-32.3409042-9.2401962l6.5831032-32.4761009   L51.875,35.5321999L40.0922966,93.6615982c-0.377903,2.169899,0.4389992,5.3144989,1.8247032,7.0234985l19.6371956,26.0283051   C62.2494965,127.5708008,63.164093,128,64.078598,128c0.908699,0,1.817894-0.4228973,2.5136948-1.2699966l19.5146027-25.5630035   c1.3969955-1.6996994,2.1962967-4.8320007,1.785202-6.9961014L75.8837967,35.7733994z M83.7362976,93.8192978   l-37.134201-11.7265015c-0.0269012-0.0082932-0.0533028-0.0092926-0.0800972-0.0165939l1.3666954-6.7426987l33.5619965,9.5893936   c0.1567001,0.044899,0.3134995,0.0600052,0.4697037,0.0664063L83.7362976,93.8192978z M82.9276962,98.7397003   l-18.8442001,24.6846008L45.1103935,98.2759018c-0.0283928-0.0371017-0.0571976-0.0737991-0.0864983-0.110405   c-0.6543007-0.8065948-1.158699-2.7299957-0.9975014-3.7777939l1.6982002-8.3774033l37.6733017,11.896904   c0.0122986,0.0038986,0.0240021,0.0019989,0.0362015,0.005394c-0.1270065,0.2832031-0.267601,0.5326996-0.4175034,0.7148056   C82.9862976,98.6641006,82.9564972,98.7016983,82.9276962,98.7397003z"/><path d="M52.8285942,30.8285999l8.3428001,8.3427982C61.9491959,39.9491997,62.9745941,40.3378983,64,40.3378983   c1.0253983,0,2.0507965-0.3886986,2.828598-1.1665001l8.3427963-8.3427982c1.5557022-1.5557003,1.5557022-4.1014996,0-5.6571999   l-8.3427963-8.3428001C66.0507965,16.0508003,65.0253983,15.6616001,64,15.6616001   c-1.0254059,0-2.0508041,0.3892002-2.8286057,1.1669998l-8.3428001,8.3428001   C51.2728958,26.7271004,51.2728958,29.2728996,52.8285942,30.8285999z M63.989296,19.6630993   C63.9901962,19.6625996,63.9940948,19.6620998,64,19.6620998v-0.0049L72.3427963,28L64,36.3428001L55.657196,28   L63.989296,19.6630993z"/></g><text x="0" y="143" fill="#000000" font-size="5px" font-weight="bold" font-family="'Helvetica Neue', Helvetica, Arial-Unicode, Arial, Sans-serif">Created by priyanka</text><text x="0" y="148" fill="#000000" font-size="5px" font-weight="bold" font-family="'Helvetica Neue', Helvetica, Arial-Unicode, Arial, Sans-serif">from the Noun Project</text></svg>