<svg xmlns="http://www.w3.org/2000/svg" xmlns:xlink="http://www.w3.org/1999/xlink" xml:space="preserve" version="1.1" style="shape-rendering:geometricPrecision;text-rendering:geometricPrecision;image-rendering:optimizeQuality;" viewBox="0 0 2217 5327.5" x="0px" y="0px" fill-rule="evenodd" clip-rule="evenodd"><defs><style type="text/css">
   
    .fil0 {fill:black}
   
  </style></defs><g><path class="fil0" d="M1104 1142l-253 249 56 174c16,-5 34,-8 52,-8l303 -1c20,0 39,4 57,10l52 -161 -267 -263zm158 541c29,0 53,24 53,53 0,29 -24,52 -53,52l-302 1c-29,0 -53,-23 -53,-52 0,-29 24,-53 53,-53l302 -1zm137 -1206l-591 0 -489 -477 1569 0 -489 477zm687 -477l131 539 -660 855 -449 -441 -977 -953 -131 539 660 855 448 -441 978 -953zm-1167 1911l-320 1539 513 812 514 -812 -321 -1540c-13,3 -28,5 -43,5l-302 1c-14,0 -28,-2 -41,-5z"/></g><text x="0" y="4277" fill="#000000" font-size="5px" font-weight="bold" font-family="'Helvetica Neue', Helvetica, Arial-Unicode, Arial, Sans-serif">Created by popcornarts</text><text x="0" y="4282" fill="#000000" font-size="5px" font-weight="bold" font-family="'Helvetica Neue', Helvetica, Arial-Unicode, Arial, Sans-serif">from the Noun Project</text></svg>